<?xml version="1.0" encoding="UTF-8"?><svg xmlns="http://www.w3.org/2000/svg" xmlns:xlink="http://www.w3.org/1999/xlink" viewBox="0 0 122.69 184.4"><defs><style>.cls-1{fill:url(#radial-gradient-7);}.cls-2{fill:url(#radial-gradient-10);}.cls-3{fill:url(#radial-gradient-8);}.cls-4{fill:url(#radial-gradient-5);}.cls-5{fill:url(#radial-gradient-4);}.cls-6{isolation:isolate;}.cls-7{fill:url(#radial-gradient-6);}.cls-8{fill:url(#radial-gradient-12);}.cls-9{clip-path:url(#clippath-1);}.cls-10{fill:url(#radial-gradient);}.cls-11{fill:url(#radial-gradient-13);mix-blend-mode:multiply;opacity:.39;}.cls-12{fill:url(#radial-gradient-15);opacity:.47;}.cls-13{clip-path:url(#clippath);}.cls-14{fill:url(#radial-gradient-2);}.cls-15{fill:none;}.cls-16{fill:url(#radial-gradient-3);}.cls-17{fill:#efb1d3;mix-blend-mode:screen;opacity:.58;}.cls-18{fill:url(#radial-gradient-14);}.cls-19{fill:url(#radial-gradient-11);}.cls-20{fill:url(#radial-gradient-9);}</style><clipPath id="clippath"><path class="cls-15" d="M61.47,0C29.3-.04,.05,57.98,0,101.36c-.05,43.38,27.38,70,61.26,70.04,33.88,.04,61.38-26.51,61.43-69.89C122.74,58.13,93.64,.04,61.47,0Z"/></clipPath><clipPath id="clippath-1"><path class="cls-15" d="M61.47,0C29.3-.04,.05,57.98,0,101.36c-.05,43.38,27.38,70,61.26,70.04,33.88,.04,61.38-26.51,61.43-69.89C122.74,58.13,93.64,.04,61.47,0Z"/></clipPath><radialGradient id="radial-gradient" cx="34.6" cy="60.48" fx="34.6" fy="60.48" r="93.51" gradientTransform="matrix(1, 0, 0, 1, 0, 0)" gradientUnits="userSpaceOnUse"><stop offset=".15" stop-color="#d92c7b"/><stop offset=".57" stop-color="#c12c7b"/><stop offset="1" stop-color="#af2c7b"/></radialGradient><radialGradient id="radial-gradient-2" cx="-20.26" cy="112.34" fx="-20.26" fy="112.34" r="27.52" gradientTransform="translate(115.48 -20.52) rotate(12.56)" gradientUnits="userSpaceOnUse"><stop offset="0" stop-color="#1fe3ec"/><stop offset=".84" stop-color="#00acb8"/></radialGradient><radialGradient id="radial-gradient-3" cx="221.92" cy="62.76" fx="221.92" fy="62.76" r="10.81" gradientTransform="translate(-121.31 60.63) rotate(-15.3)" xlink:href="#radial-gradient-2"/><radialGradient id="radial-gradient-4" cx="-16.12" cy="188.44" fx="-16.12" fy="188.44" r="11.71" gradientTransform="translate(160.21 -17.24) rotate(14.39)" xlink:href="#radial-gradient-2"/><radialGradient id="radial-gradient-5" cx="-77.46" cy="216.46" fx="-77.46" fy="216.46" r="11.78" gradientTransform="translate(160.21 -17.24) rotate(14.39)" xlink:href="#radial-gradient-2"/><radialGradient id="radial-gradient-6" cx="-65.98" cy="135.96" fx="-65.98" fy="135.96" r="14.95" gradientTransform="translate(95.64 5.09) rotate(8.95)" xlink:href="#radial-gradient-2"/><radialGradient id="radial-gradient-7" cx="131.27" cy="63.24" fx="131.27" fy="63.24" r="13.99" gradientTransform="translate(-121.31 60.63) rotate(-15.3)" xlink:href="#radial-gradient-2"/><radialGradient id="radial-gradient-8" cx="212.78" cy="116.15" fx="212.78" fy="116.15" r="19.62" gradientTransform="translate(-121.31 60.63) rotate(-15.3)" xlink:href="#radial-gradient-2"/><radialGradient id="radial-gradient-9" cx="208.01" cy="23.73" fx="208.01" fy="23.73" r="10.44" gradientTransform="translate(-121.31 60.63) rotate(-15.3)" xlink:href="#radial-gradient-2"/><radialGradient id="radial-gradient-10" cx="-95.7" cy="69.29" fx="-95.7" fy="69.29" r="10.33" gradientTransform="translate(170.44 -17.01) rotate(20.93)" xlink:href="#radial-gradient-2"/><radialGradient id="radial-gradient-11" cx="-176.7" cy="160.19" fx="-176.7" fy="160.19" r="10.59" gradientTransform="translate(293.67 9.91) rotate(33.72)" xlink:href="#radial-gradient-2"/><radialGradient id="radial-gradient-12" cx="-327.75" cy="418.04" fx="-327.75" fy="418.04" r="13.01" gradientTransform="translate(534.36 191.41) rotate(68.22)" xlink:href="#radial-gradient-2"/><radialGradient id="radial-gradient-13" cx="57.66" cy="65.63" fx="57.66" fy="65.63" r="84.04" xlink:href="#radial-gradient"/><radialGradient id="radial-gradient-14" cx="153.68" cy="118.63" fx="153.68" fy="118.63" r="18.48" gradientTransform="translate(-121.31 60.63) rotate(-15.3)" xlink:href="#radial-gradient-2"/><radialGradient id="radial-gradient-15" cx="61.34" cy="177.9" fx="61.34" fy="177.9" r="41.17" gradientTransform="translate(0 152.7) scale(1 .14)" gradientUnits="userSpaceOnUse"><stop offset="0" stop-color="#000"/><stop offset="1" stop-color="#fff" stop-opacity="0"/></radialGradient></defs><g class="cls-6"><g id="Layer_2"><g id="OBJECTS"><g class="cls-13"><g class="cls-9"><path class="cls-10" d="M61.47,0C29.3-.04,.05,57.98,0,101.36c-.05,43.38,27.38,70,61.26,70.04,33.88,.04,61.38-26.51,61.43-69.89C122.74,58.13,93.64,.04,61.47,0Z"/></g><g><path class="cls-14" d="M98.61,85.23c2.26-1.31,1.73-4.71-.75-4.97-6.12-.64-9.18-1.05-15.25-2.04-1.1-.18-1.94-1.08-2.08-2.23-.76-6.31-1.13-9.47-1.85-15.79-.29-2.56-3.48-3.18-4.68-.91-2.95,5.6-4.46,8.38-7.56,13.9-.56,1-1.68,1.51-2.77,1.25-6-1.41-8.98-2.21-14.89-3.96-2.4-.71-4.19,2.17-2.6,4.23,3.92,5.08,5.92,7.58,10.01,12.5,.74,.89,.85,2.16,.25,3.14-3.28,5.43-4.96,8.12-8.38,13.46-1.39,2.16,.88,4.92,3.32,3.99,6.01-2.3,8.99-3.53,14.88-6.12,1.07-.47,2.31-.21,3.09,.64,4.3,4.71,6.49,7.01,10.94,11.54,1.81,1.83,5.05,.21,4.72-2.34-.83-6.29-1.23-9.44-2.03-15.75-.14-1.14,.46-2.27,1.5-2.81,5.73-2.96,8.56-4.51,14.14-7.75Zm-15.87,.12c-2.36,1.22-3.55,1.81-5.93,2.98-.43,.21-.69,.68-.63,1.16,.3,2.64,.45,3.96,.76,6.59,.12,1.07-1.2,1.71-1.92,.93-1.79-1.92-2.68-2.9-4.45-4.85-.32-.35-.83-.46-1.27-.26-2.41,1.11-3.62,1.65-6.05,2.7-.99,.43-1.94-.67-1.39-1.6,1.35-2.29,2.02-3.43,3.35-5.73,.24-.42,.19-.94-.12-1.31-1.73-1.99-2.59-3-4.29-5.02-.69-.82,.04-2.06,1.06-1.82,2.52,.6,3.78,.89,6.31,1.44,.46,.1,.93-.12,1.16-.54,1.3-2.32,1.94-3.48,3.21-5.81,.51-.94,1.88-.67,2,.4,.29,2.64,.43,3.96,.73,6.6,.05,.48,.4,.86,.86,.95,2.54,.47,3.82,.69,6.37,1.1,1.03,.17,1.22,1.6,.26,2.09Z"/><path class="cls-16" d="M118.35,56.17c.51-.9-.29-1.88-1.17-1.43-2.17,1.09-3.26,1.63-5.45,2.68-.4,.19-.84,.09-1.1-.24-1.44-1.84-2.16-2.77-3.58-4.63-.58-.76-1.76-.21-1.73,.8,.07,2.49,.1,3.73,.17,6.22,.01,.45-.25,.88-.65,1.06-2.21,.99-3.32,1.48-5.55,2.42-.9,.38-.89,1.74,.03,1.98,2.26,.59,3.4,.88,5.67,1.42,.41,.1,.7,.47,.71,.92,.06,2.49,.1,3.73,.16,6.22,.03,1.01,1.28,1.3,1.83,.42,1.36-2.17,2.03-3.26,3.35-5.44,.24-.4,.68-.6,1.1-.52,2.29,.48,3.43,.71,5.73,1.14,.93,.17,1.64-1.04,1.04-1.76-1.49-1.79-2.23-2.69-3.7-4.51-.27-.33-.29-.82-.05-1.22,1.29-2.2,1.93-3.3,3.2-5.52Zm-5.22,3.48c-.54,.91-.81,1.37-1.36,2.28-.1,.17-.09,.37,.02,.51,.61,.76,.91,1.15,1.52,1.91,.25,.31-.05,.81-.43,.73-.95-.2-1.42-.3-2.37-.51-.17-.04-.36,.05-.46,.21-.55,.91-.83,1.36-1.38,2.27-.23,.37-.74,.25-.76-.17-.03-1.04-.05-1.55-.08-2.59,0-.19-.13-.34-.3-.38-.94-.22-1.42-.33-2.36-.55-.38-.09-.4-.66-.02-.83,.93-.41,1.39-.62,2.31-1.05,.17-.08,.28-.26,.27-.44-.03-1.04-.05-1.55-.08-2.59-.01-.42,.49-.65,.73-.34,.6,.77,.9,1.16,1.5,1.93,.11,.14,.3,.18,.46,.1,.92-.43,1.38-.65,2.29-1.09,.37-.18,.7,.24,.48,.61Z"/><path class="cls-5" d="M109.95,160.51c1.01-.53,.82-1.87-.27-1.95-2.7-.2-4.05-.31-6.74-.57-.49-.05-.86-.38-.91-.83-.31-2.46-.47-3.68-.78-6.14-.13-1-1.57-1.15-2.12-.23-1.34,2.28-2.02,3.41-3.39,5.68-.25,.41-.75,.65-1.23,.59-2.68-.33-4.02-.51-6.7-.91-1.08-.16-1.85,1.05-1.11,1.77,1.81,1.78,2.73,2.66,4.57,4.41,.33,.32,.39,.81,.13,1.21-1.4,2.25-2.1,3.37-3.53,5.6-.58,.91,.43,1.87,1.47,1.4,2.57-1.15,3.85-1.74,6.39-2.95,.46-.22,1-.16,1.34,.15,1.87,1.71,2.81,2.56,4.7,4.24,.77,.68,2.16-.01,2.03-1-.32-2.45-.48-3.68-.79-6.13-.06-.44,.21-.9,.67-1.13,2.52-1.27,3.77-1.91,6.27-3.23Zm-6.99,.27c-1.05,.52-1.57,.79-2.62,1.3-.19,.09-.3,.28-.28,.47,.13,1.02,.19,1.54,.32,2.56,.05,.42-.52,.7-.84,.41-.78-.71-1.17-1.06-1.94-1.77-.14-.13-.36-.15-.56-.06-1.05,.51-1.58,.76-2.64,1.25-.43,.2-.85-.19-.61-.57,.58-.94,.87-1.41,1.45-2.36,.1-.17,.08-.37-.06-.51-.77-.72-1.15-1.08-1.92-1.8-.31-.29,0-.81,.46-.75,1.12,.14,1.68,.21,2.8,.34,.2,.02,.41-.08,.51-.25,.57-.95,.86-1.42,1.42-2.37,.23-.38,.84-.32,.89,.1,.13,1.02,.19,1.54,.32,2.56,.02,.19,.18,.33,.38,.35,1.12,.12,1.69,.17,2.81,.28,.46,.04,.53,.6,.1,.81Z"/><path class="cls-4" d="M43.36,175.11c1.07-.32,1.01-1.69-.08-2-2.7-.77-4.04-1.17-6.73-2-.49-.15-.82-.56-.84-1.02-.07-2.52-.11-3.78-.17-6.29-.03-1.02-1.47-1.48-2.11-.68-1.58,1.99-2.37,2.98-3.97,4.95-.29,.36-.81,.49-1.3,.33-2.66-.9-3.99-1.37-6.63-2.33-1.07-.39-1.96,.66-1.29,1.53,1.65,2.16,2.48,3.23,4.15,5.37,.3,.39,.31,.89,.02,1.24-1.63,1.95-2.44,2.92-4.09,4.84-.67,.78,.25,1.96,1.34,1.71,2.69-.61,4.03-.92,6.71-1.58,.49-.12,1.02,.06,1.33,.44,1.71,2.1,2.57,3.15,4.3,5.23,.7,.84,2.17,.45,2.14-.57-.08-2.52-.12-3.78-.19-6.29-.01-.46,.3-.85,.79-.99,2.66-.73,3.98-1.11,6.63-1.89Zm-7.06-1.21c-1.1,.3-1.66,.45-2.76,.74-.2,.05-.33,.22-.33,.41,.03,1.05,.04,1.57,.07,2.62,.01,.43-.6,.58-.88,.23-.71-.87-1.07-1.31-1.78-2.18-.13-.16-.35-.23-.55-.18-1.11,.28-1.66,.42-2.78,.69-.45,.11-.83-.37-.56-.7,.68-.82,1.01-1.23,1.68-2.04,.12-.15,.12-.36,0-.52-.7-.88-1.05-1.32-1.75-2.21-.28-.36,.08-.8,.53-.65,1.11,.38,1.67,.57,2.78,.94,.2,.07,.42,.01,.54-.14,.67-.82,1-1.24,1.66-2.06,.27-.33,.88-.14,.89,.29,.03,1.05,.04,1.58,.06,2.62,0,.19,.15,.36,.35,.43,1.12,.36,1.68,.53,2.8,.88,.45,.14,.47,.71,.02,.84Z"/><path class="cls-7" d="M23.93,131.02c1.27-.44,1.08-2.24-.27-2.62-3.33-.95-4.99-1.45-8.3-2.49-.6-.19-1.04-.72-1.09-1.32-.28-3.31-.42-4.96-.69-8.27-.11-1.34-1.88-1.93-2.59-.86-1.75,2.63-2.64,3.94-4.43,6.55-.32,.47-.95,.65-1.54,.44-3.28-1.16-4.91-1.77-8.16-3.02-1.32-.51-2.31,.88-1.45,2.03,2.13,2.84,3.2,4.26,5.38,7.06,.39,.51,.44,1.17,.11,1.64-1.83,2.58-2.75,3.86-4.6,6.42-.75,1.04,.45,2.58,1.75,2.25,3.22-.82,4.82-1.26,8.02-2.16,.58-.16,1.24,.06,1.65,.56,2.24,2.74,3.37,4.11,5.66,6.8,.93,1.09,2.68,.54,2.56-.8-.31-3.3-.46-4.96-.76-8.26-.05-.6,.3-1.13,.87-1.31,3.17-1.01,4.74-1.54,7.88-2.63Zm-8.65-1.44c-1.31,.42-1.97,.62-3.29,1.02-.24,.07-.39,.29-.37,.54,.11,1.38,.17,2.07,.29,3.45,.05,.56-.68,.78-1.05,.32-.93-1.13-1.4-1.7-2.33-2.84-.17-.21-.44-.3-.68-.23-1.32,.38-1.98,.57-3.31,.94-.54,.15-1.04-.48-.73-.92,.76-1.08,1.13-1.62,1.89-2.71,.14-.2,.12-.47-.05-.68-.92-1.15-1.37-1.73-2.28-2.89-.37-.47,.04-1.06,.6-.86,1.37,.49,2.06,.73,3.43,1.2,.25,.09,.51,0,.64-.19,.74-1.09,1.12-1.64,1.86-2.73,.3-.44,1.05-.19,1.09,.37,.11,1.38,.17,2.07,.28,3.45,.02,.25,.2,.48,.45,.56,1.38,.45,2.07,.67,3.46,1.11,.56,.18,.63,.93,.1,1.1Z"/><path class="cls-1" d="M34.34,82.85c.83-.92-.02-2.47-1.24-2.27-3.01,.5-4.52,.73-7.55,1.15-.55,.08-1.11-.23-1.38-.76-1.51-2.9-2.25-4.36-3.72-7.29-.6-1.19-2.22-1-2.38,.28-.39,3.15-.59,4.72-.98,7.87-.07,.57-.49,1-1.04,1.05-3.04,.32-4.56,.45-7.61,.68-1.24,.09-1.48,1.8-.35,2.5,2.79,1.71,4.19,2.55,7.02,4.18,.51,.3,.81,.88,.74,1.45-.4,3.15-.6,4.72-1,7.87-.16,1.28,1.41,2.16,2.29,1.29,2.17-2.15,3.25-3.24,5.39-5.43,.39-.4,1-.48,1.52-.2,2.87,1.54,4.32,2.29,7.22,3.76,1.18,.59,2.33-.64,1.68-1.8-1.6-2.85-2.39-4.28-3.95-7.15-.28-.52-.22-1.15,.16-1.55,2.09-2.24,3.13-3.36,5.19-5.64Zm-7.41,2.26c-.87,.93-1.31,1.39-2.19,2.31-.16,.17-.19,.43-.07,.65,.64,1.21,.96,1.81,1.61,3.02,.26,.49-.22,.99-.7,.73-1.19-.64-1.79-.96-2.97-1.61-.21-.12-.47-.09-.63,.08-.89,.91-1.33,1.36-2.22,2.27-.36,.37-1.01,0-.94-.53,.16-1.31,.24-1.97,.4-3.28,.03-.24-.1-.48-.31-.6-1.18-.67-1.76-1-2.93-1.68-.47-.28-.38-.99,.13-1.04,1.27-.13,1.91-.2,3.18-.35,.23-.03,.41-.21,.43-.44,.16-1.31,.24-1.97,.4-3.28,.06-.53,.75-.61,1-.12,.62,1.22,.94,1.83,1.57,3.04,.11,.22,.35,.35,.58,.32,1.27-.16,1.9-.25,3.17-.43,.51-.07,.86,.58,.51,.96Z"/><path class="cls-3" d="M131.79,104.6c.96-1.61-.56-3.23-2.21-2.38-4.07,2.11-6.13,3.13-10.26,5.1-.75,.36-1.59,.21-2.09-.35-2.72-3.12-4.06-4.7-6.72-7.9-1.08-1.29-3.31-.32-3.27,1.44,.1,4.33,.14,6.49,.23,10.82,.02,.78-.49,1.54-1.25,1.86-4.21,1.78-6.33,2.63-10.6,4.25-1.73,.66-1.74,3.03,0,3.45,4.29,1.05,6.44,1.54,10.77,2.43,.78,.16,1.33,.8,1.34,1.58,.08,4.33,.12,6.5,.19,10.83,.03,1.76,2.45,2.22,3.51,.66,2.64-3.83,3.94-5.76,6.49-9.64,.46-.7,1.31-1.09,2.1-.97,4.37,.68,6.56,.98,10.95,1.49,1.78,.21,3.12-1.98,1.97-3.18-2.86-2.96-4.27-4.46-7.07-7.49-.51-.55-.55-1.41-.1-2.12,2.45-3.94,3.65-5.92,6.01-9.9Zm-9.84,6.52c-1.02,1.63-1.54,2.44-2.58,4.06-.19,.29-.17,.65,.03,.89,1.15,1.29,1.73,1.93,2.89,3.21,.47,.52-.1,1.41-.83,1.3-1.81-.28-2.71-.42-4.51-.73-.33-.06-.68,.1-.87,.4-1.06,1.61-1.59,2.41-2.66,4.01-.43,.65-1.42,.47-1.44-.26-.05-1.8-.07-2.71-.11-4.51,0-.33-.23-.59-.56-.65-1.79-.34-2.69-.52-4.48-.89-.73-.15-.74-1.13-.03-1.44,1.76-.75,2.64-1.12,4.4-1.9,.32-.14,.53-.46,.52-.78-.05-1.8-.07-2.7-.12-4.51-.02-.73,.93-1.15,1.38-.62,1.13,1.32,1.69,1.98,2.83,3.28,.21,.24,.56,.3,.88,.15,1.74-.8,2.61-1.21,4.34-2.04,.7-.34,1.33,.36,.91,1.02Z"/><path class="cls-20" d="M94.2,23.32c.51-.85-.21-1.9-1.05-1.55-2.07,.88-3.11,1.31-5.2,2.15-.38,.15-.79,.01-1.03-.35-1.29-1.98-1.93-2.98-3.2-4.98-.51-.81-1.64-.38-1.65,.63-.02,2.5-.03,3.75-.05,6.24,0,.45-.27,.86-.65,1-2.11,.78-3.17,1.16-5.29,1.9-.86,.3-.89,1.66-.04,1.99,2.1,.81,3.15,1.2,5.27,1.96,.38,.14,.64,.54,.64,.99-.03,2.5-.04,3.75-.07,6.24-.01,1.01,1.16,1.42,1.71,.59,1.35-2.04,2.02-3.07,3.34-5.12,.24-.37,.66-.54,1.05-.41,2.13,.7,3.2,1.04,5.35,1.7,.87,.27,1.58-.88,1.03-1.66-1.34-1.94-2.01-2.91-3.33-4.87-.24-.36-.24-.85,0-1.23,1.29-2.08,1.93-3.12,3.19-5.21Zm-5.02,2.97c-.54,.86-.81,1.29-1.35,2.15-.1,.16-.1,.36,0,.51,.54,.82,.82,1.24,1.37,2.06,.22,.33-.07,.8-.43,.69-.88-.29-1.33-.44-2.21-.73-.16-.05-.34,.01-.43,.17-.55,.86-.82,1.28-1.38,2.13-.22,.35-.71,.18-.7-.24,0-1.04,0-1.56,.02-2.6,0-.19-.11-.35-.27-.41-.88-.31-1.32-.46-2.19-.78-.36-.13-.35-.7,0-.83,.88-.33,1.32-.49,2.2-.83,.16-.06,.27-.23,.27-.42,0-1.04,0-1.56,.01-2.6,0-.42,.48-.61,.7-.27,.54,.83,.8,1.25,1.34,2.08,.1,.15,.27,.21,.43,.15,.88-.34,1.31-.52,2.19-.87,.35-.14,.65,.31,.43,.65Z"/><path class="cls-2" d="M65.58,16.06c.85-.26,.9-1.62,.08-1.99-2.02-.91-3.02-1.37-5.02-2.32-.36-.17-.59-.6-.57-1.05,.13-2.5,.2-3.75,.32-6.25,.05-1.01-1.02-1.54-1.57-.77-1.35,1.9-2.03,2.85-3.41,4.73-.25,.34-.66,.45-1.02,.27-1.98-1-2.96-1.52-4.92-2.56-.79-.42-1.56,.58-1.11,1.47,1.1,2.19,1.65,3.29,2.78,5.47,.2,.4,.17,.89-.09,1.23-1.41,1.86-2.12,2.79-3.55,4.63-.58,.75,.03,1.95,.9,1.75,2.13-.49,3.19-.75,5.31-1.29,.38-.1,.78,.1,.99,.49,1.15,2.16,1.73,3.24,2.91,5.38,.48,.87,1.64,.55,1.7-.46,.14-2.5,.2-3.75,.34-6.25,.02-.45,.3-.83,.68-.94,2.1-.59,3.15-.9,5.24-1.54Zm-5.34-1.56c-.87,.25-1.31,.37-2.18,.61-.16,.04-.27,.2-.28,.39-.06,1.04-.09,1.56-.15,2.6-.02,.42-.5,.55-.7,.19-.48-.9-.72-1.34-1.2-2.24-.09-.16-.25-.25-.41-.2-.88,.23-1.32,.34-2.19,.56-.36,.09-.61-.4-.38-.72,.59-.78,.88-1.17,1.46-1.95,.11-.14,.12-.35,.03-.51-.47-.9-.71-1.35-1.18-2.26-.19-.37,.13-.79,.46-.62,.83,.42,1.24,.63,2.07,1.04,.15,.08,.32,.03,.43-.11,.58-.79,.86-1.18,1.43-1.97,.23-.32,.68-.1,.66,.32-.06,1.04-.09,1.56-.15,2.6-.01,.19,.08,.37,.24,.44,.83,.4,1.25,.61,2.09,1,.34,.16,.31,.73-.04,.83Z"/><path class="cls-19" d="M66.89,49.84c.93-.04,1.26-1.36,.49-1.92-1.92-1.38-2.87-2.08-4.76-3.49-.34-.26-.5-.73-.38-1.16,.63-2.4,.94-3.6,1.55-6.01,.25-.97-.77-1.74-1.49-1.13-1.77,1.52-2.66,2.28-4.46,3.77-.33,.27-.78,.28-1.11,.01-1.86-1.46-2.79-2.2-4.63-3.7-.75-.61-1.73,.18-1.44,1.15,.72,2.4,1.09,3.6,1.83,5.99,.13,.43,0,.91-.33,1.17-1.83,1.46-2.75,2.18-4.59,3.61-.75,.58-.36,1.89,.58,1.92,2.31,.06,3.46,.07,5.76,.08,.42,0,.79,.29,.93,.73,.76,2.38,1.14,3.58,1.92,5.95,.31,.96,1.59,.95,1.86-.02,.66-2.4,.98-3.59,1.63-5.99,.12-.43,.48-.74,.9-.75,2.3-.06,3.46-.1,5.76-.21Zm-5.24-2.83c-.96,.03-1.43,.04-2.39,.05-.17,0-.32,.13-.37,.31-.27,1-.4,1.5-.68,2.5-.11,.4-.63,.41-.76,0-.32-.99-.48-1.49-.8-2.48-.06-.18-.21-.3-.39-.3-.96,0-1.43,0-2.39,0-.39,0-.56-.54-.25-.79,.76-.61,1.14-.92,1.9-1.54,.14-.11,.19-.31,.13-.49-.31-.99-.47-1.49-.78-2.48-.13-.4,.28-.74,.6-.49,.78,.61,1.17,.92,1.95,1.52,.14,.11,.33,.11,.47,0,.75-.62,1.13-.94,1.88-1.57,.3-.25,.73,.07,.62,.48-.26,1-.4,1.5-.66,2.5-.05,.18,.02,.38,.16,.49,.79,.6,1.18,.9,1.97,1.49,.32,.24,.18,.79-.21,.8Z"/><path class="cls-8" d="M30.08,54.2c.93,.79,2.17-.12,1.81-1.32-.88-2.96-1.32-4.45-2.17-7.42-.15-.54,.02-1.11,.42-1.41,2.25-1.65,3.36-2.49,5.57-4.19,.9-.69,.42-2.3-.69-2.35-2.74-.13-4.11-.22-6.85-.43-.5-.04-.93-.43-1.08-.97-.82-2.99-1.22-4.48-2.02-7.47-.32-1.21-1.79-1.35-2.15-.2-.88,2.84-1.33,4.25-2.23,7.08-.16,.51-.61,.82-1.11,.77-2.73-.3-4.1-.47-6.83-.84-1.11-.15-1.62,1.37-.75,2.23,2.15,2.11,3.24,3.16,5.44,5.22,.4,.37,.56,.97,.39,1.48-.92,2.82-1.39,4.23-2.33,7.05-.38,1.14,.84,2.27,1.78,1.65,2.32-1.55,3.47-2.33,5.75-3.93,.41-.29,.97-.24,1.38,.12,2.25,2,3.38,2.99,5.66,4.93Zm-3.06-7.24c-.94-.82-1.4-1.24-2.33-2.07-.17-.15-.4-.17-.57-.05-.94,.67-1.42,1-2.37,1.66-.39,.27-.89-.19-.74-.67,.38-1.18,.57-1.77,.94-2.95,.07-.21,0-.46-.17-.62-.92-.84-1.38-1.27-2.29-2.12-.37-.35-.16-.99,.3-.94,1.15,.12,1.72,.18,2.86,.29,.21,.02,.39-.11,.46-.33,.37-1.18,.56-1.77,.93-2.96,.15-.48,.77-.42,.91,.08,.34,1.25,.51,1.87,.85,3.12,.06,.23,.24,.39,.45,.41,1.15,.09,1.72,.14,2.87,.22,.47,.03,.66,.71,.28,.99-.93,.69-1.4,1.03-2.34,1.71-.17,.12-.24,.36-.18,.58,.35,1.24,.52,1.87,.88,3.11,.14,.5-.37,.88-.75,.54Z"/></g><path class="cls-17" d="M52.4,44.8c-7.36,14.82-18.94,24.04-25.86,20.6-6.92-3.44-6.55-18.24,.81-33.05,7.37-14.82,18.94-24.04,25.86-20.6,6.92,3.44,6.55,18.24-.81,33.05Z"/><path class="cls-11" d="M73.35,2.05c19.58,19.83,35.53,57.38,35.49,87.74-.05,43.38-27.55,69.94-61.43,69.89-9.82-.01-19.09-2.27-27.31-6.51,10.95,11.09,25.66,17.19,41.84,17.21,33.88,.04,60.86-26.51,60.92-69.89,.05-37.48-22.86-85.92-49.51-98.44Z"/><path class="cls-18" d="M75.11,127.37c1.07-1.33-.19-3.25-1.84-2.8l-10.15,2.78c-.74,.2-1.52-.09-1.94-.73l-5.78-8.8c-.94-1.43-3.15-.82-3.23,.88l-.5,10.51c-.04,.76-.56,1.41-1.29,1.62l-10.15,2.78c-1.65,.45-1.75,2.74-.16,3.35l9.84,3.72c.71,.27,1.17,.97,1.14,1.73l-.5,10.51c-.08,1.7,2.07,2.52,3.13,1.18l6.58-8.21c.48-.6,1.28-.82,2-.55l9.84,3.72c1.6,.6,3.03-1.19,2.09-2.61l-5.78-8.8c-.42-.64-.38-1.47,.1-2.07l6.58-8.21Zm-9.84,4.16l-2.74,3.42c-.2,.25-.22,.6-.04,.86l2.41,3.67c.39,.59-.21,1.34-.87,1.09l-4.1-1.55c-.3-.11-.63-.02-.83,.23l-2.74,3.42c-.44,.56-1.34,.22-1.31-.49l.21-4.38c.02-.32-.18-.61-.47-.72l-4.1-1.55c-.67-.25-.62-1.21,.07-1.39l4.23-1.16c.31-.08,.52-.36,.54-.67l.21-4.38c.03-.71,.96-.96,1.35-.37l2.41,3.67c.17,.27,.5,.39,.81,.31l4.23-1.16c.69-.19,1.21,.61,.77,1.17Z"/></g><ellipse class="cls-12" cx="61.34" cy="177.9" rx="42.5" ry="6.5"/></g></g></g></svg>