<?xml version="1.0" encoding="UTF-8"?><svg id="Layer_2" xmlns="http://www.w3.org/2000/svg" viewBox="0 0 72 108"><defs><style>.cls-1{fill:#50b7d1;}.cls-2{fill:#281838;}.cls-3{fill:#9070ac;}.cls-4{fill:#b0639e;}.cls-5{fill:#9f68a1;}.cls-6{fill:#837cb4;}.cls-7{fill:#d56a8c;}.cls-8{fill:#d96c8c;}.cls-9{fill:#8a75b2;}.cls-10{fill:#6b9bc2;}.cls-11{fill:#748fbc;}.cls-12{fill:#9669a9;}.cls-13{fill:#e46d87;}.cls-14{fill:#322a3c;}.cls-15{fill:#a96aa7;}.cls-16{fill:#60a4c7;}.cls-17{fill:#be6797;}.cls-18{fill:#a260a5;}.cls-19{fill:#7a8ab9;}.cls-20{fill:#05000b;}.cls-21{opacity:.25;}.cls-22{fill:#ca6a93;}.cls-23{fill:#58acca;}</style></defs><g id="Layer_1-2"><g><g><path class="cls-2" d="M48.09,83.97c-2.02,6.36-7.73,10.61-13.32,9.9-.08-.12-.14-.33-.23-.35-.64-.12-1.31-.13-1.93-.32-2.29-.7-4.27-2.02-5.96-3.93-.29-.33-.74-.48-1.11-.71-.07-.09-.13-.18-.2-.26h0l-.45-.67,.06-.07-.06,.07c-.28-.83-.51-1.7-.86-2.49-.2-.46-.61-.81-.92-1.2l-3.96-.15c-.11-.17-.19-.44-.34-.5-1.01-.41-1.17-1.33-1.12-2.37,.02-.42,.09-.84,.14-1.26l.05,.06-.05-.06c2.02-.14,4.03-.39,6.05-.4,9.18-.04,18.36,0,27.53-.03,1.15,0,2.22-.06,2.73,1.44,.07,.21,.36,.32,.56,.48v.47l-.3,1.02-.06-.06,.05,.06-.57,.74-.04,.04-.51,.11c-1.43,0-2.86-.03-4.29,.01-.3,0-.6,.29-.9,.44Z"/><path class="cls-22" d="M28.33,64.01c.32,.1,.63,.26,.96,.29,1.34,.12,2.29,1.12,2.32,2.5,.03,1.46-.91,2.62-2.28,2.64-2.28,.04-4.56-.03-6.84-.05v-.37h6.55c-.43-.48-.85-.73-1.28-.91-1.56-.64-3.04-1.31-4.35-2.62-.67-.67-1.48-1.05-1.62-2.19,0-.03-.11-.05-.24-.1-.04,.27-.08,.52-.1,.78-.05,.82-.59,.86-1.06,.73-.5-.14-1.33-.44-1.37-.77-.19-1.68,.12-3.4-.64-5.05-.26-.56-.29-1.02-.96-1.04-.99-.03-1.61-.53-1.63-1.81,0-.27-.51-.52-.79-.78v-8.92l.42-.16c.21,.45,.46,.88,.62,1.34,.25,.74,.43,1.55,1.33,1.55,1.17,0,1.55,.42,1.59,1.75,.04,1.32,.13,2.64,.19,3.96v9.46h1.96c0-1.2,0-2.36,0-3.52,.12-.28,.31-.56,.33-.86,.05-.82,.01-1.64,.01-2.46v-.95l1.15,.32-.42,1.4c.26,.06,.52,.1,.77,.18,1.12,.34,2.28,.55,3.05,1.76,.28,.44,.82,.67,1.24,1l.15-.22,.25,.89,.26-.03c0-.45-.02-.9,0-1.34,.05-.77,.13-1.53,.2-2.3,0,1.78,0,3.57,.01,5.35,0,.18,.14,.36,.21,.55Z"/><path class="cls-1" d="M57.04,7.58c1.73,1.75,3.47,3.49,5.2,5.24l.25,.43-.02-.02c.07,.08,.15,.17,.22,.25h-.01c.06,.08,.13,.18,.19,.27,.04,.03,.05,.08,.02,.12,0,.63,0,1.26,0,1.89l.03,.05-.03,.05-.2,.29h.01c-.07,.08-.14,.16-.21,.25h.01c-.07,.08-.14,.16-.21,.24v.03c-1.15,.62-2.15,.39-3.03-.68-.07-.09-.26-.06-.39-.08h.02c-.28-.32-.57-.63-.85-.95h0c-.21-.23-.42-.47-.64-.71h.02c-.08-.08-.15-.16-.23-.24v.03c0-.81-.41-1.04-1.04-.97h.02c-.08-.08-.15-.16-.23-.24l.02,.02c-.13-.09-.27-.19-.4-.28h0l-.23-.23v.02c-.14-.15-.29-.3-.44-.46h.02c-.14-.09-.27-.18-.41-.27h0l-.23-.23v.02c-.28-.23-.57-.45-.85-.68h.01c-.27-.19-.54-.36-.8-.54h0l-.31-.22h-.06l-.05-.03-.64-.46h.01l-.42-.25h0c-.22-.28-.39-.67-.67-.82-1.02-.56-2.09-1.03-3.12-1.58-.3-.16-.54-.48-.78-.76-.33-.38-.63-.8-.95-1.19-.23-.27-.51-.49-.72-.77-.69-.94-1.36-1.9-2.05-2.86,1.16-.44,2.29,.26,3.45,.61,1.36,.41,2.69,.93,4.04,1.41h-.01c.28,.15,.56,.31,.85,.47h-.02c.15,.07,.29,.15,.44,.23h-.01c.14,.07,.29,.15,.43,.24h-.01c.14,.07,.29,.15,.43,.23h-.01c.14,.07,.28,.16,.42,.25h-.01c.28,.15,.56,.32,.84,.49h-.01c.14,.08,.28,.17,.41,.25h0l.23,.22v-.02c.13,.09,.27,.17,.41,.26h-.01c.08,.07,.16,.15,.23,.23v-.02c.13,.09,.27,.17,.41,.26h-.01c.08,.07,.15,.16,.23,.24v-.02c.12,.09,.26,.18,.4,.27h-.01c.13,.08,.27,.18,.4,.27h0l.62,.47Z"/><path class="cls-4" d="M28.33,64.01c-.07-.18-.21-.36-.21-.55-.02-1.78-.01-3.57-.01-5.35,0-2.34,0-4.68,0-7-.92,.1-2.15,.52-2.3,.21-.78-1.51-2.12-2-3.27-2.84-.26-.19-.54-.36-.82-.53-.09,.31-.26,.62-.26,.93-.02,2.52-.01,5.04-.01,7.56v.95h-.34c-.02-2.88-.05-5.75-.05-8.62,0-6.22,.02-12.44,.03-18.66h.14c.07,.41,.2,.81,.21,1.22,.02,1.99,0,3.99,0,5.89,.98,.21,1.64,.47,2.3,.46,.86-.01,1.4,.27,1.58,1.27,.13,.74,.48,1.17,1.21,1.15,.7-.02,.9,.49,.98,1.23,.04,.4,.39,.76,.59,1.13,.08,1.11,.15,2.22,.23,3.33v18.23Z"/><path class="cls-4" d="M38.51,64.4c1.8-.03,3.61-.04,5.41-.1,.35-.01,.7-.18,1.06-.27,.07-.37,.19-.73,.19-1.1,.02-1.68,.01-3.37,.01-5.06,.13,.02,.37,0,.39,.07,.36,1.09,1.15,1.09,1.97,1.17,.26,.03,.73,.62,.69,.85-.22,1.09,.33,1.21,1.02,1.22,.45,0,.89,0,1.34,0l.26,3.07-.02-.04c.05,.14,.1,.41,.13,.4,1.55-.22,2.61,.93,3.85,1.64,1.1,.63,2.5,.75,2.22,2.75-4.16,0-8.32,0-12.49,0-.11-.24-.16-.6-.33-.69-1.3-.67-2.61-1.33-3.95-1.9-.67-.29-1.41-.39-2.11-.58l.02-.45,2.92-.15v-.49c-.42,0-.85,.05-1.27-.01-.44-.06-.88-.22-1.32-.34Z"/><path class="cls-9" d="M44.89,42.27c-1.23-.77-2.47-1.54-3.7-2.3-.34-.53-.94-1.04-.97-1.59-.11-2.24-.06-4.49-.02-6.74,0-.26,.32-.77,.41-.74,.63,.17,1.43,.25,1.83,.73,1.15,1.4,2.05,3.07,3.59,4,1.52,1.08,3.04,2.17,4.57,3.25,0,2.82,0,5.63,0,8.44l-.32,.16c-1.68-2.06-3.36-4.12-5.13-6.3l-.25,1.1Z"/><path class="cls-4" d="M38.31,71.64c7.52-.01,15.04-.04,22.56-.03,1.3,0,2.24,1.16,2.21,2.58-.03,1.45-1,2.46-2.42,2.46-9.25,0-18.5,0-27.75,0-1.52,0-3.05-.02-4.57-.04,.36-.07,.72-.2,1.08-.2,3.03-.02,6.07-.02,9.1-.02h12.14v-.52h-3.47v-.36l2.87-.16c-1.36-.52-2.47-.89-3.54-1.39-.27-.12-.44-.64-.55-1.01-.08-.27,0-.6,.03-1.07-2.22,0-4.36,.01-6.49-.01-.4,0-.79-.14-1.18-.22Z"/><path class="cls-8" d="M.97,49.3l.04-.07c-.11-1.2-.22-2.41-.33-3.61l.26-.14,2.35,2.24c1.06-.84,1.18-.8,1.62,.75,.2,.71,.31,1.46,.57,2.15,.43,1.17,.95,2.3,1.43,3.44h-.01c.07,.16,.14,.32,.21,.48v-.02c.06,.17,.13,.34,.21,.51,.87,1.75,1.76,3.49,2.59,5.26,.55,1.16,.13,2.58-.88,3.29-.94,.66-2.37,.5-2.88-.6-1.44-3.13-2.74-6.34-4.1-9.52-.22-.81-.43-1.63-.65-2.44h.01c-.07-.23-.15-.48-.22-.72h.02c-.08-.33-.16-.66-.24-1Z"/><path class="cls-6" d="M37.88,18.03c0,4.43,0,8.86,0,13.29l-.2,.47c-.36-.27-.73-.51-1.08-.8-.97-.83-1.92-1.68-2.88-2.52l-.33-1.41c-1.44-1.21-2.5-2.57-2.21-4.87,.18-1.38,.03-2.82,.03-4.56-.79,.72-1.41,1.28-2.03,1.84-1,.1-1.84-.07-2.23-1.36-.1-.32-.52-.5-.72-.81-.25-.38-.44-.82-.65-1.23l.19-.2,.24-.24h0l.22-.22h0l.38-.3v.02c.06-.08,.14-.16,.21-.25h0c.07-.07,.15-.15,.22-.24v.02c.07-.1,.14-.2,.22-.3,.28-.3,.56-.6,.84-.91,.08,.46,.15,.92,.24,1.38,.14,.67,1.96,2.69,2.47,2.51,1.35-.49,1.47,.77,1.97,1.55,.31,.48,.69,.93,1.09,1.33,.68,.66,1.37,1.3,2.11,1.86,.46,.35,1.01,.52,1.71,.87,0-.92-.02-1.43,0-1.94,.05-1,.13-2,.2-3Z"/><path class="cls-13" d="M10.83,76.59c-1.4-.41-1.96-1.21-1.89-2.71,.05-1.19,.73-1.98,1.9-2.2,.37,.07,.73,.19,1.1,.19,3.19,.02,6.38,.01,9.56,.01,.36,0,.71,0,1.07,0-.06,.35-.17,.41-.26,.49-.29,.27-.57,.55-.85,.82,.31,.2,.6,.47,.93,.58,1.02,.35,1.9,.83,2.18,2.36-.5,.09-.95,.24-1.41,.24-3.74,.02-7.48,0-11.23,.02-.36,0-.73,.13-1.09,.2Z"/><path class="cls-22" d="M38.31,71.64c.39,.08,.79,.22,1.18,.22,2.14,.02,4.27,.01,6.49,.01-.02,.47-.11,.8-.03,1.07,.11,.37,.28,.89,.55,1.01,1.07,.5,2.18,.87,3.54,1.39l-2.86,.16v.36h3.47v.52c-4.05,0-8.1,0-12.15,0-.3-.16-.6-.42-.91-.45-.69-.07-1.39-.02-2.08-.02l-.02-.31,1.03-.34c-1.93-.21-3.78-.36-4.03-3.38-.58,0-1.23,.03-1.88,0-.84-.05-1.68-.15-2.53-.22,3.4,0,6.8,0,10.2,0Z"/><path class="cls-18" d="M28.1,42.46c-.21-.38-.55-.73-.59-1.13-.08-.73-.28-1.25-.98-1.23-.74,.02-1.08-.41-1.21-1.15-.18-1-.72-1.28-1.58-1.27-.66,.01-1.32-.25-2.3-.46,0-1.9,.01-3.89,0-5.89,0-.41-.14-.81-.21-1.22,0-.1-.02-.2-.03-.3l.19-.19,.26-.24h0c.13-.09,.26-.19,.39-.28h-.02c.15-.16,.3-.32,.45-.48l.18-.19c.39-.11,.77-.22,1.27-.36,1.1,1.23,2.27,2.56,3.46,3.86,.17,.19,.48,.22,.73,.32v10.2Z"/><path class="cls-19" d="M37.88,18.03c-.07,1-.15,2-.2,3-.03,.51,0,1.01,0,1.94-.7-.35-1.25-.53-1.71-.87-.74-.56-1.44-1.21-2.11-1.86-.4-.39-.78-.84-1.09-1.33-.5-.78-.62-2.04-1.97-1.55-.5,.18-2.33-1.84-2.47-2.51-.09-.46-.16-.92-.24-1.38l.19-.2,.21-.24,2.69-2.89c2.19,2.22,4.35,4.37,6.46,6.59,.23,.25,.17,.86,.24,1.3Z"/><path class="cls-7" d="M28.1,71.64c.84,.08,1.68,.18,2.53,.22,.65,.04,1.29,0,1.88,0,.24,3.02,2.1,3.17,4.03,3.38l-1.03,.34,.02,.31c.69,0,1.39-.05,2.08,.02,.31,.03,.61,.29,.91,.45-3.03,0-6.07,0-9.1,.02-.36,0-.72,.13-1.08,.2-5.83,0-11.67,0-17.5-.01,.36-.07,.73-.2,1.09-.2,3.74-.02,7.48,0,11.23-.02,.46,0,.91-.15,1.41-.24-.28-1.52-1.16-2.01-2.18-2.36-.33-.11-.62-.38-.93-.58,.28-.28,.56-.55,.85-.82,.09-.08,.2-.15,.26-.49-.36,0-.71,0-1.07,0-3.19,0-6.38,0-9.56-.01-.37,0-.73-.12-1.1-.19,5.76-.01,11.51-.02,17.27-.03Z"/><path class="cls-18" d="M57.04,69.02c.27-2-1.12-2.12-2.22-2.75-1.25-.71-2.31-1.86-3.85-1.64-.03,0-.09-.26-.13-.4,.67-.01,1.33-.02,2-.04l.17,.08c.03-.1,.08-.2,.08-.3,0-3.38,0-6.75,0-10.13,.2,.15,.58,.3,.58,.44-.02,1,.53,1.35,1.2,1.83,1.36,.96,2.49,2.12,2.21,4.31-.15,1.17,.09,2.4,.15,3.6,.35,.17,.71,.35,1.06,.52l.47,.35v.02c.07,.07,.14,.15,.21,.22v.02c.08,.08,.14,.16,.21,.24h-.01c.14,.34,.29,.68,.43,1.02l.03,.05-.03,.05c-.13,.61-.27,1.22-.4,1.84h-.01c-.07,.08-.13,.16-.2,.24h-.01c-.07,.08-.14,.16-.21,.23h0c-.57,.06-1.15,.12-1.72,.17Z"/><path class="cls-17" d="M38.51,64.4c.44,.12,.87,.28,1.32,.34,.42,.06,.85,.01,1.27,.01v.49l-2.92,.15-.02,.45c.71,.19,1.44,.29,2.11,.58,1.34,.57,2.64,1.23,3.95,1.9,.17,.09,.22,.45,.33,.69-2.51,0-5.03-.01-7.54,.01-1.13,.01-2.26,.14-3.14-.9h.02c-.07-.1-.13-.19-.2-.28l-.15-.51c.06-.41,.16-.82,.17-1.24,.02-2.35,.01-4.7,.01-7.05,.18,.1,.48,.17,.51,.32,.33,1.53,1.16,1.23,2.11,.65l.43,2.05,.9-.4,.22,2.57,.6,.16Z"/><path class="cls-17" d="M19.14,54.79c-.07-1.32-.15-2.64-.19-3.96-.04-1.32-.42-1.75-1.59-1.75-.9,0-1.07-.81-1.33-1.55-.16-.47-.41-.9-.62-1.34l-.42,.16c0,2.97,0,5.95,0,8.92,0,2.45,0,4.9,0,7.35l-.09,.69-.12-.02v-23.39c1.38-1.16,2.76-2.32,4.36-3.66v18.54Z"/><path class="cls-23" d="M64.21,24.46c-.86-1.55-.66-3.08,.53-3.9,1.2-.83,2.58-.24,3.32,1.41,.16,.35,.28,.71,.42,1.07,.08,.22,.16,.44,.24,.66h0c0,.14-.02,.31,.02,.46,.69,2.41,1.43,4.81,2.07,7.23,.25,.94,.67,1.94,.06,3.28-.78-1.51-1.17-3-2.49-3.81-.66-.4-1.17-.92-1.96-.74l-.26-.48-.02-.05,.04-.05c-.06-.36-.12-.72-.17-1.08l-.44-.7h0c-.15-.46-.31-.93-.46-1.4h0c-.07-.15-.14-.31-.22-.47h.03c-.06-.09-.13-.18-.19-.27h0c-.18-.38-.35-.77-.53-1.16Z"/><path class="cls-4" d="M1.19,30.08c.54-3.17,1.69-6.08,3.09-8.85,.58-1.15,1.92-1.35,2.95-.64,1,.69,1.29,2,.84,3.3-1,2.89-1.97,5.79-2.91,8.71-.27,.84-.36,1.75-.54,2.63,.13-1.59,.25-3.17,.38-4.76-1.08-.37-2.39-.14-3.21-1.43l-.61,1.05Z"/><path class="cls-12" d="M44.89,42.27l.25-1.1c1.77,2.18,3.45,4.24,5.13,6.3l.32-.16c0-2.81,0-5.63,0-8.44,.09,.27,.26,.54,.26,.82,0,8.2,0,16.39,0,24.59-.09-1.02-.17-2.04-.26-3.07,0-2.42,0-4.84,0-7.23l-1.02-.22c-.27-.65-.35-1.39-.71-1.65-1.17-.86-2.44-1.54-3.67-2.29,0-2.13,0-4.26-.02-6.39,0-.4-.16-.79-.24-1.19l-.03,.03Z"/><path class="cls-6" d="M46.03,35.61c-1.55-.93-2.45-2.6-3.59-4-.39-.48-1.19-.56-1.83-.73-.09-.02-.4,.48-.41,.74-.03,2.25-.09,4.5,.02,6.74,.03,.55,.63,1.06,.97,1.59-1.12-.29-1.46-1.05-1.43-2.38,.08-4.33,.03-8.67,.03-13.2,.36,.21,.62,.34,.86,.52,1.66,1.21,3.32,2.42,4.96,3.66,.25,.19,.56,.56,.57,.86,.05,1.97,.02,3.94,0,5.91,0,.09-.11,.18-.17,.28Z"/><path class="cls-17" d="M1.19,30.08l.61-1.05c.82,1.29,2.13,1.07,3.21,1.43-.13,1.59-.26,3.18-.38,4.76-.05,2.81-.1,5.62-.14,8.42-.25-1.37-.51-2.74-.78-4.25l-1.76,.86-1.33-3.83-.55,.56c.16-1.27,.32-2.54,.48-3.81,.23-1.03,.45-2.06,.68-3.09h-.02Z"/><path class="cls-3" d="M57.23,64.03c-.06-1.2-.3-2.43-.15-3.6,.28-2.19-.85-3.36-2.21-4.31-.67-.47-1.22-.82-1.2-1.83,0-.14-.38-.3-.58-.44,0-2.13,0-4.26-.01-6.39,0-.4-.15-.81-.22-1.21,.27-.01,.62-.16,.81-.02,1.08,.78,2.13,1.6,3.16,2.47,.23,.19,.43,.63,.43,.96,.02,4.8,0,9.59-.02,14.39Z"/><path class="cls-23" d="M50.41,3.28c-1.35-.47-2.68-.99-4.04-1.41-1.16-.35-2.29-1.05-3.45-.61,.69,.97,1.36,1.93,2.05,2.86,.21,.29,.49,.5,.72,.77,.33,.39,.62,.81,.95,1.19,.24,.28,.48,.6,.78,.76,1.03,.55,2.1,1.01,3.12,1.58,.27,.15,.45,.54,.67,.82-2.51-1.11-5-2.27-7.53-3.29-1.06-.43-2.23-.54-3.35-.77-1.42-.29-2.22-1.45-2.04-2.99,.17-1.42,1.32-2.5,2.64-2.12,3.07,.87,6.11,1.93,9.16,2.92,.12,.04,.21,.19,.31,.29Z"/><path class="cls-8" d="M14.77,39.9v23.39l.12,.02c.03-.23,.06-.46,.09-.69,.36-.3,.71-.59,1.36-1.13-.69,2.5,.67,2.42,2.01,2.36l-.07,.43-1.4,.63c-.12,.56-.24,1.02-.29,1.49-.02,.21,.12,.44,.19,.65,.79-.37,.83,.48,1.19,.88,.36,.4,.87,.74,1.36,.82,1.03,.19,2.09,.19,3.14,.27v.37c-2.67,.04-5.33,.11-8,.09-1.15,0-2.1-1.06-2.21-2.25-.12-1.31,.46-2.49,1.62-2.79,.79-.2,.77-.69,.77-1.35,0-7.27,0-14.53,0-21.8,0-.46,.07-.93,.11-1.39Z"/><path class="cls-22" d="M.06,36.99l.55-.56,1.33,3.83,1.76-.86c.28,1.51,.53,2.88,.78,4.25,.81,3.47,1.61,6.94,2.42,10.41-.48-1.14-.99-2.27-1.43-3.44-.25-.68-.36-1.44-.57-2.15-.45-1.55-.57-1.59-1.62-.75l-2.35-2.24-.26,.14c.11,1.2,.22,2.41,.33,3.61-.34-2.34-.67-4.68-1.01-7.02,0-1.34,0-2.68,0-4.02l.06-1.19Z"/><path class="cls-16" d="M66.42,30.12c.79-.17,1.3,.34,1.96,.74,1.33,.81,1.71,2.3,2.49,3.81,.61-1.34,.19-2.34-.06-3.28-.64-2.43-1.38-4.82-2.07-7.23-.04-.14-.01-.31-.02-.47,.77,2.31,1.75,4.56,2.25,6.94,.57,2.7,.7,5.51,1.03,8.28-.16,.99-.32,1.98-.48,2.97l-.24,.09c-.35-2.19-1.51-3.46-3.36-4-.09-.79-.12-1.61-.28-2.4-.17-.89-.44-1.76-.67-2.63l.04-.07c-.21-.83-.42-1.66-.63-2.49h0c.01-.08,.02-.17,.03-.25Z"/><path class="cls-10" d="M66.97,32.94c.23,.88,.5,1.74,.67,2.63,.15,.79,.19,1.61,.28,2.4,1.85,.54,3.01,1.8,3.36,4l.24-.09c.16-.99,.32-1.98,.48-2.97-.08,2.05-.17,4.11-.25,6.16-.11,.25-.27,.49-.33,.75-.18,.75-.31,1.51-.48,2.35-.77-.69-1.31-1.57-1.95-1.68-1.46-.25-1.38-1.27-1.33-2.44,0-.21-.12-.43-.18-.64-.17-3.49-.33-6.98-.5-10.47Z"/><path class="cls-19" d="M67.47,43.41c.06,.21,.19,.43,.18,.64-.05,1.17-.13,2.19,1.33,2.44,.64,.11,1.18,.99,1.95,1.68,.17-.84,.31-1.6,.48-2.35,.06-.26,.22-.5,.33-.75-.65,2.91-1.3,5.83-1.95,8.74-.08,.18-.16,.36-.24,.53h.02c-.4-.25-.8-.51-1.2-.76-.4-.24-.8-.63-1.22-.66-.82-.06-1.19-.46-1.19-1.36,.5-2.72,1-5.44,1.5-8.16Z"/><path class="cls-9" d="M21.22,8.98c-1.87,1.43-3.74,2.87-5.61,4.3-.13-.31-.28-.9-.39-.89-.83,.09-1.04-.51-1.29-1.21-.14-.37-.46-.65-.6-.84l-1.72,.3c2.01-1.67,4.01-3.34,6.02-5.02,.3,.57,.51,1.25,.91,1.69,.75,.81,1.56,1.59,2.69,1.66Z"/><path class="cls-12" d="M11.61,10.65l1.72-.3c.14,.19,.47,.46,.6,.84,.25,.69,.47,1.29,1.29,1.21,.1-.01,.26,.58,.39,.89-1.01,1.12-2.01,2.26-3.04,3.37-.9,.98-2.21,.98-3.09,.04-.89-.95-1-2.42-.16-3.5,.71-.91,1.52-1.71,2.28-2.56Z"/><path class="cls-10" d="M28.93,.54c.88-.18,1.75-.41,2.63-.51,1.12-.13,2.06,.64,2.35,1.82,.3,1.21-.11,2.24-1.16,2.91-.48,.05-.95,.1-1.43,.14-.71,.06-1.45,.29-2.12,.13-.57-.13-1.06-.71-1.67-1.14,.57-1.31-.25-1.6-1.35-1.81,.28-.35,.54-.55,.82-.69,.63-.3,1.28-.57,1.92-.86Z"/><path class="cls-3" d="M68.18,58.13c-.76,1.59-1.47,3.21-2.3,4.75-.62,1.15-1.91,1.39-2.94,.72-1-.65-1.44-2.13-.9-3.28,.7-1.49,1.49-2.93,2.23-4.38,.08,.48,.06,1.03,.28,1.41,.22,.39,.7,.58,1.03,.91,.43,.43,.81,.91,1.22,1.37,.4-.47,.79-.95,1.19-1.41,.04-.05,.13-.05,.19-.07Z"/><path class="cls-11" d="M28.93,.54c-.64,.28-1.29,.55-1.92,.86-.29,.14-.55,.34-.82,.69,1.1,.21,1.93,.5,1.35,1.81,.6,.43,1.1,1.01,1.67,1.14,.67,.16,1.41-.07,2.12-.13,.48-.04,.95-.09,1.43-.14-.76,.21-1.53,.43-2.3,.64-1.58,.43-3.16,.84-4.74,1.27-.26,.1-.52,.2-.77,.29-.01,.08-.05,.11-.12,.09-.52-.59-1.02-1.21-1.58-1.75-.63-.62-1.25-1.2-1.02-2.3h.02c.28-.14,.57-.3,.85-.45v.02c.2-.11,.41-.22,.62-.33l5.22-1.7Z"/><path class="cls-19" d="M22.22,3c-.23,1.1,.39,1.68,1.02,2.3,.56,.54,1.06,1.17,1.58,1.75-1.2,.64-2.4,1.28-3.6,1.92-1.13-.07-1.94-.85-2.69-1.66-.41-.44-.61-1.12-.91-1.69l.03,.02c.08-.09,.15-.18,.23-.27l4.34-2.38Z"/><path class="cls-6" d="M68.18,58.13c-.07,.02-.15,.02-.19,.07-.4,.47-.79,.94-1.19,1.41-.4-.46-.79-.94-1.22-1.37-.33-.33-.8-.52-1.03-.91-.22-.38-.2-.93-.28-1.41v.03c.08-.19,.16-.38,.23-.58,.49-1.27,.97-2.54,1.46-3.82,0,.9,.37,1.3,1.19,1.36,.42,.03,.82,.42,1.22,.66,.4,.24,.8,.51,1.2,.76-.46,1.26-.93,2.52-1.39,3.78Z"/><path class="cls-12" d="M28.1,32.26c-.25-.1-.55-.13-.73-.32-1.2-1.3-2.36-2.63-3.46-3.86-.5,.14-.88,.25-1.27,.36,1.72-1.6,3.44-3.19,5.16-4.79,.1,.39,.29,.78,.29,1.17,.03,2.48,.01,4.96,.01,7.44Z"/><path class="cls-14" d="M54.71,81.13c-.19-.16-.48-.27-.56-.48-.51-1.51-1.58-1.45-2.73-1.44-9.18,.03-18.36,0-27.53,.03-2.02,0-4.04,.26-6.05,.4,.58-.28,1.15-.8,1.73-.81,10.92-.05,21.83-.04,32.75-.03,1.45,0,2.15,.72,2.39,2.32Z"/><path class="cls-15" d="M33.87,68.13c.89,1.04,2.02,.91,3.14,.9,2.51-.02,5.03,0,7.54-.01,4.16,0,8.32,0,12.49,0,.57-.06,1.15-.11,1.72-.17-.46,.2-.92,.58-1.39,.58-7.21,.04-14.42,.03-21.62,0-.81,0-1.59-.25-1.88-1.31Z"/><path class="cls-9" d="M25.58,16.06c.21,.41,.4,.85,.65,1.23,.2,.31,.63,.49,.72,.81,.39,1.28,1.23,1.45,2.23,1.36-1.21,1.16-2.41,2.31-3.62,3.47l-.31-.09,.32-6.77Z"/><path class="cls-5" d="M33.73,59.06c0,2.35,0,4.7-.01,7.05,0,.41-.11,.82-.17,1.24-.02-.55-.06-1.1-.06-1.65,0-12.41,0-24.82,0-37.23,0-.47-.06-.94-.09-1.41,.11,.47,.22,.94,.33,1.41,0,3,0,6.01,0,9.01,0,3.64,0,7.28,0,10.91v10.67Z"/><path class="cls-5" d="M37.9,64.24l-.22-2.57c0-3.72,0-7.43,0-11.15,0-3.48,0-6.96,0-10.43v-8.3l.21-.47c.01,8.68,.02,17.37,.03,26.05,0,2.29,0,4.58-.01,6.87Z"/><path class="cls-14" d="M25.54,88.55c.37,.23,.82,.38,1.11,.71,1.68,1.92,3.67,3.23,5.96,3.93,.62,.19,1.29,.19,1.93,.32,.09,.02,.16,.23,.23,.35-3.73-.29-6.84-2-9.23-5.31Z"/><path class="cls-5" d="M28.1,32.26c0-2.48,.02-4.96-.01-7.44,0-.39-.19-.78-.29-1.17,.12-.12,.25-.24,.53-.51,0,7.68,0,15.16,0,22.65-.08-1.11-.15-2.22-.23-3.33,0-3.4,0-6.8,0-10.2Z"/><path class="cls-5" d="M44.92,42.24c.08,.4,.24,.79,.24,1.19,.03,2.13,.01,4.26,.02,6.39,0,2.69,0,5.38,0,8.07,0,1.69,0,3.37-.01,5.06,0,.37-.13,.74-.19,1.1-.02-6.12-.04-12.24-.05-18.36,0-1.15,0-2.29,0-3.44Z"/><path class="cls-12" d="M52.85,46.24c.08,.4,.22,.81,.22,1.21,.02,2.13,.01,4.26,.01,6.39,0,3.38,0,6.75,0,10.13,0,.1-.05,.2-.08,.3l-.17-.08c0-5.98,.01-11.97,.02-17.95Z"/><path class="cls-14" d="M17.85,79.64c-.05,.42-.12,.84-.14,1.26-.05,1.04,.11,1.96,1.12,2.37,.15,.06,.23,.33,.34,.5-.93,.04-1.47-.57-1.78-1.46-.34-.98-.25-1.91,.47-2.67Z"/><path class="cls-14" d="M23.12,83.92c.31,.4,.72,.74,.92,1.2,.35,.79,.58,1.66,.86,2.49-.59-1.23-1.18-2.46-1.78-3.69Z"/><path class="cls-23" d="M58.88,15.92c.13,.02,.32,0,.39,.08,.87,1.06,1.88,1.29,3.04,.68-1.01,1.22-2.42,.91-3.43-.76Z"/><path class="cls-20" d="M48.09,83.97c.3-.16,.6-.43,.9-.44,1.43-.04,2.86-.02,4.29-.01,0,.06,0,.12,0,.18-1.33,.05-2.66,.1-3.98,.16-.4,.02-.81,.08-1.21,.12Z"/><path class="cls-17" d="M21.1,57.4h.34c0,.82,.03,1.65-.01,2.47-.02,.29-.22,.57-.33,.86,0-1.11,0-2.22,0-3.32Z"/><path class="cls-4" d="M1.22,30.09c-.23,1.03-.45,2.06-.68,3.09,.23-1.03,.45-2.06,.68-3.09Z"/><path class="cls-17" d="M0,38.19c0,1.34,0,2.68,0,4.02,0-1.34,0-2.68,0-4.02Z"/><path class="cls-10" d="M66.37,30.37c.21,.83,.42,1.66,.63,2.49-.21-.83-.42-1.66-.63-2.49Z"/><path class="cls-22" d="M1.41,51.02c.22,.81,.43,1.63,.65,2.44-.22-.81-.43-1.63-.65-2.44Z"/><path class="cls-15" d="M59.19,68.37c.13-.61,.27-1.22,.4-1.84-.13,.61-.27,1.22-.4,1.84Z"/><path class="cls-23" d="M62.9,15.77c0-.63,0-1.26,0-1.89,.44,.63,.46,1.26,0,1.89Z"/><path class="cls-23" d="M56.17,13.08c.63-.06,1.04,.17,1.03,.97-.34-.32-.69-.65-1.03-.97Z"/><path class="cls-23" d="M58.05,14.97c.28,.32,.57,.63,.85,.95-.28-.32-.57-.63-.85-.95Z"/><path class="cls-16" d="M65.11,26.36c.15,.47,.31,.94,.46,1.41-.15-.47-.31-.94-.46-1.41Z"/><path class="cls-23" d="M53.45,10.74c.28,.23,.57,.45,.85,.68-.29-.23-.57-.45-.85-.68Z"/><path class="cls-16" d="M64.21,24.46c.18,.39,.35,.78,.53,1.17-.18-.39-.35-.78-.53-1.17Z"/><path class="cls-14" d="M54.41,82.62l.3-1.02-.3,1.02Z"/><path class="cls-14" d="M53.83,83.36l.57-.74-.57,.74Z"/><path class="cls-23" d="M57.42,14.27c.21,.24,.42,.48,.64,.71-.21-.24-.42-.48-.64-.71Z"/><path class="cls-23" d="M52.66,10.2c.27,.18,.54,.35,.8,.53-.27-.18-.54-.35-.8-.53Z"/><path class="cls-19" d="M23.09,2.55c-.28,.15-.57,.3-.85,.46,.28-.15,.57-.3,.85-.46Z"/><path class="cls-23" d="M51.24,3.75c-.28-.16-.56-.32-.85-.48,.28,.16,.56,.32,.85,.48Z"/><path class="cls-23" d="M51.61,9.49l.64,.46-.64-.46Z"/><path class="cls-14" d="M24.9,87.62l.45,.68-.45-.68Z"/><path class="cls-15" d="M59.6,66.43c-.14-.34-.29-.68-.43-1.02,.14,.34,.29,.68,.43,1.02Z"/><path class="cls-23" d="M53.74,5.18c-.28-.17-.56-.33-.84-.5,.28,.17,.56,.33,.84,.5Z"/><path class="cls-10" d="M65.99,28.46c.06,.36,.12,.72,.17,1.08-.13-.36-.26-.71-.39-1.07h.22Z"/><path class="cls-16" d="M65.99,28.46h-.22c-.07-.23-.14-.47-.22-.7,.15,.23,.29,.47,.44,.7Z"/><path class="cls-23" d="M57.04,7.58l-.62-.47,.62,.47Z"/><path class="cls-22" d="M.97,49.3c.08,.34,.16,.67,.24,1.01-.08-.34-.16-.67-.24-1.01Z"/><path class="cls-14" d="M53.29,83.69c0-.06-.01-.12,0-.18,.17-.04,.34-.08,.51-.11l-.51,.3Z"/><path class="cls-23" d="M54.92,11.9c.15,.15,.3,.3,.44,.46-.15-.15-.3-.3-.44-.46Z"/><path class="cls-12" d="M22.46,28.62c-.15,.16-.3,.31-.45,.47,.15-.16,.3-.31,.45-.47Z"/><path class="cls-15" d="M58.76,64.9l-.47-.35,.47,.35Z"/><path class="cls-19" d="M24.94,6.96c.26-.1,.52-.2,.77-.29-.26,.1-.52,.2-.77,.29Z"/><path class="cls-10" d="M66.42,30.12c-.01,.09-.02,.18-.03,.27-.08-.25-.15-.5-.23-.75,.09,.16,.17,.32,.26,.48Z"/><path class="cls-16" d="M68.73,23.7c-.08-.22-.16-.44-.24-.66,.08,.22,.16,.44,.24,.66Z"/><path class="cls-22" d="M1.2,50.3c.07,.24,.15,.48,.22,.72-.07-.24-.15-.48-.22-.72Z"/><path class="cls-19" d="M23.71,2.24c-.21,.11-.42,.22-.63,.33,.21-.11,.42-.22,.63-.33Z"/><path class="cls-23" d="M55.58,12.57c.13,.09,.27,.19,.4,.28-.13-.09-.27-.19-.4-.28Z"/><path class="cls-23" d="M62.5,13.25l-.25-.43,.25,.43Z"/><path class="cls-23" d="M56.42,7.11c-.13-.09-.27-.19-.4-.28,.13,.09,.27,.19,.4,.28Z"/><path class="cls-6" d="M69.56,54.35c.08-.18,.16-.36,.24-.53-.08,.18-.16,.36-.24,.53Z"/><path class="cls-22" d="M7.11,54.54c-.07-.16-.14-.33-.21-.49,.07,.16,.14,.33,.21,.49Z"/><path class="cls-22" d="M7.31,55.04c-.07-.17-.15-.34-.22-.51,.07,.17,.15,.34,.22,.51Z"/><path class="cls-23" d="M56.03,6.84c-.14-.09-.28-.18-.42-.27,.14,.09,.28,.18,.42,.27Z"/><path class="cls-3" d="M64.51,55.38c-.07,.19-.15,.38-.22,.58,.07-.19,.15-.38,.22-.58Z"/><path class="cls-12" d="M22.02,29.1c-.13,.1-.26,.19-.39,.29,.13-.1,.26-.19,.39-.29Z"/><path class="cls-23" d="M51.21,9.25l.42,.25-.42-.25Z"/><path class="cls-23" d="M55.41,6.36c-.14-.09-.28-.17-.42-.26,.14,.09,.28,.17,.42,.26Z"/><path class="cls-23" d="M54.78,5.9c-.14-.09-.28-.17-.43-.26,.14,.09,.28,.17,.43,.26Z"/><path class="cls-23" d="M52.91,4.7c-.14-.09-.28-.17-.42-.26,.14,.09,.28,.17,.42,.26Z"/><path class="cls-23" d="M52.5,4.45c-.14-.08-.29-.16-.43-.24,.14,.08,.29,.16,.43,.24Z"/><path class="cls-23" d="M52.08,4.22c-.14-.08-.29-.17-.43-.25,.14,.08,.29,.17,.43,.25Z"/><path class="cls-23" d="M54.14,5.44c-.14-.09-.28-.18-.41-.26,.14,.09,.28,.18,.41,.26Z"/><path class="cls-23" d="M51.66,3.98c-.15-.08-.29-.16-.44-.24,.15,.08,.29,.16,.44,.24Z"/><path class="cls-16" d="M64.9,25.88c.07,.16,.14,.32,.22,.48-.07-.16-.14-.32-.22-.48Z"/><path class="cls-6" d="M28.5,13.03l-.21,.24,.21-.24Z"/><path class="cls-23" d="M54.53,11.63c.14,.09,.27,.18,.41,.27-.14-.09-.27-.18-.41-.27Z"/><path class="cls-9" d="M26.61,15.11l-.38,.3,.38-.3Z"/><path class="cls-23" d="M52.36,9.98l.31,.22-.31-.22Z"/><path class="cls-23" d="M54.31,11.4l.23,.24-.23-.24Z"/><path class="cls-23" d="M55.36,12.34l.23,.24-.23-.24Z"/><path class="cls-23" d="M55.96,12.83c.08,.08,.15,.16,.23,.25-.08-.08-.15-.16-.23-.25Z"/><path class="cls-23" d="M62.7,13.49c-.07-.08-.15-.17-.22-.25,.07,.08,.15,.17,.22,.25Z"/><path class="cls-23" d="M62.88,13.75c-.06-.09-.13-.19-.19-.28,.06,.09,.13,.19,.19,.28Z"/><path class="cls-23" d="M57.21,14.02c.08,.08,.15,.16,.23,.24-.08-.08-.15-.16-.23-.24Z"/><path class="cls-9" d="M27.25,14.37c-.07,.1-.15,.2-.22,.3,.07-.1,.15-.2,.22-.3Z"/><path class="cls-9" d="M27.03,14.65c-.07,.08-.15,.17-.22,.25,.07-.08,.15-.17,.22-.25Z"/><path class="cls-9" d="M26.82,14.88c-.07,.08-.15,.16-.22,.25,.07-.08,.15-.16,.22-.25Z"/><path class="cls-9" d="M26.23,15.41l-.22,.23,.22-.23Z"/><path class="cls-9" d="M26.01,15.63l-.24,.24,.24-.24Z"/><path class="cls-15" d="M58.98,65.14c-.07-.07-.14-.14-.21-.22,.07,.07,.14,.14,.21,.22Z"/><path class="cls-15" d="M59.18,65.41c-.06-.08-.13-.16-.19-.24,.06,.08,.13,.16,.19,.24Z"/><path class="cls-23" d="M62.69,16.17l.2-.29-.2,.29Z"/><path class="cls-23" d="M62.5,16.42c.07-.09,.14-.17,.21-.26-.07,.09-.14,.17-.21,.26Z"/><path class="cls-23" d="M62.3,16.66c.07-.08,.14-.17,.21-.25-.07,.08-.14,.17-.21,.25Z"/><path class="cls-15" d="M33.69,67.86c.07,.09,.13,.18,.2,.27-.07-.09-.13-.18-.2-.27Z"/><path class="cls-15" d="M58.98,68.62c.07-.08,.13-.16,.2-.24-.07,.08-.13,.16-.2,.24Z"/><path class="cls-15" d="M58.76,68.85c.07-.08,.14-.16,.21-.23-.07,.08-.14,.16-.21,.23Z"/><path class="cls-16" d="M64.73,25.62c.06,.09,.13,.18,.19,.27-.06-.09-.13-.18-.19-.27Z"/><path class="cls-14" d="M25.34,88.29l.2,.26-.2-.26Z"/><path class="cls-4" d="M21.64,29.39l-.26,.24,.26-.24Z"/><path class="cls-17" d="M21.19,29.81c0,.1,.02,.2,.03,.3h-.14l.12-.3Z"/><path class="cls-9" d="M17.89,5.38c-.08,.09-.15,.18-.23,.27,.08-.09,.15-.18,.23-.27Z"/><path class="cls-23" d="M54.37,5.66l-.23-.23,.23,.23Z"/><path class="cls-23" d="M55,6.12c-.08-.08-.16-.16-.23-.24,.08,.08,.16,.16,.23,.24Z"/><path class="cls-23" d="M55.63,6.59c-.08-.08-.15-.16-.23-.24,.08,.08,.15,.16,.23,.24Z"/><path class="cls-17" d="M21.44,56.45c0-2.52,0-5.04,.01-7.56,0-.31,.17-.62,.26-.93,.27,.18,.55,.34,.82,.53,1.15,.84,2.49,1.33,3.27,2.84,.16,.3,1.39-.11,2.3-.21,0,2.32,0,4.66,0,7-.07,.77-.15,1.53-.2,2.3-.03,.45,0,.9,0,1.34l-.26,.03-.25-.89-.15,.22c-.42-.33-.96-.55-1.24-1-.77-1.21-1.93-1.42-3.05-1.76-.25-.08-.51-.12-.77-.18l.42-1.4-1.15-.32Z"/><path class="cls-7" d="M22.48,69.03c-1.05-.08-2.11-.09-3.14-.27-.48-.09-1-.43-1.36-.82-.36-.4-.4-1.24-1.19-.88-.07-.22-.21-.45-.19-.65,.05-.47,.18-.93,.29-1.49l1.4-.63,.07-.43c-1.34,.06-2.7,.14-2.01-2.36-.65,.54-1.01,.83-1.36,1.13,0-2.45,0-4.9,0-7.35,.27,.26,.78,.52,.79,.78,.02,1.28,.64,1.78,1.63,1.81,.67,.02,.7,.48,.96,1.04,.76,1.65,.45,3.37,.64,5.05,.04,.33,.87,.63,1.37,.77,.46,.13,1.01,.09,1.06-.73,.01-.26,.06-.51,.1-.78,.13,.05,.24,.06,.24,.1,.14,1.13,.94,1.51,1.62,2.19,1.31,1.3,2.79,1.98,4.35,2.62,.44,.18,.85,.43,1.28,.91h-6.54Zm-.87-3.3c-.1-.09-.17-.19-.23-.2-.08,0-.17,.07-.25,.11,.07,.09,.13,.21,.23,.26,.04,.02,.14-.09,.26-.17Z"/><path class="cls-18" d="M45.18,57.88c0-2.69,0-5.38,0-8.07,1.23,.75,2.5,1.43,3.67,2.29,.36,.26,.45,1,.71,1.65l1.02,.22c0,2.39,0,4.81,0,7.23-.45,0-.89,0-1.34,0-.69-.02-1.24-.13-1.02-1.22,.05-.23-.42-.82-.69-.85-.83-.09-1.62-.09-1.97-1.17-.02-.07-.25-.05-.39-.07Z"/><path class="cls-3" d="M37.68,31.79c0,2.77,0,5.53,0,8.3-.27-.15-.55-.42-.82-.41-1.1,.04-1.62-.73-2.12-1.68-.16-.3-.66-.35-1.01-.52,0-3,0-6.01,0-9.01,.96,.84,1.91,1.69,2.88,2.52,.34,.29,.72,.54,1.08,.8Z"/><path class="cls-4" d="M37.68,50.52c0,3.72,0,7.43,0,11.15l-.9,.4-.43-2.05c-.96,.58-1.78,.89-2.11-.65-.03-.14-.33-.21-.51-.32,0-3.56,0-7.12,0-10.67,.22,.31,.4,.67,.66,.92,.3,.29,.73,.76,.98,.68,.83-.26,1.21,.13,1.4,.95l.92-.42Z"/><path class="cls-18" d="M37.68,50.52l-.92,.42c-.19-.81-.57-1.21-1.4-.95-.26,.08-.69-.39-.98-.68-.26-.25-.44-.61-.66-.92,0-3.64,0-7.28,0-10.91,.35,.17,.86,.22,1.01,.52,.5,.95,1.02,1.71,2.12,1.68,.27,0,.55,.27,.82,.41,0,3.48,0,6.96,0,10.43Z"/><path class="cls-22" d="M21.61,65.72c-.12,.08-.22,.19-.26,.17-.09-.05-.15-.17-.23-.26,.08-.04,.17-.12,.25-.11,.07,0,.13,.11,.23,.2Z"/></g><ellipse class="cls-21" cx="36" cy="105.32" rx="27.39" ry="2.68"/></g></g></svg>