<?xml version="1.0" encoding="UTF-8"?><svg id="Layer_1" xmlns="http://www.w3.org/2000/svg" viewBox="0 0 72 108"><defs><style>.cls-1{fill:#fff;}.cls-2{fill:#dc9230;}.cls-3{fill:#a34026;}.cls-4{fill:#632112;}.cls-5{fill:#181910;}.cls-6{fill:#f8cea3;}.cls-7{fill:#606161;}.cls-8{fill:#193049;}.cls-9{fill:#b37869;}.cls-10{fill:#e19c66;}.cls-11{fill:#eeb88e;}.cls-12{fill:#a64324;}.cls-13{fill:#a06747;}.cls-14{fill:#d07c2a;}.cls-15{fill:#e08237;}.cls-16{opacity:.3;}.cls-17{fill:#85331d;}</style></defs><ellipse class="cls-16" cx="36.78" cy="100.63" rx="29.37" ry="3.37"/><g><g><polygon class="cls-12" points="41.86 87.74 39.43 91.22 36 93.04 36 93.04 41.58 93.04 46.26 89.49 41.86 87.74"/><polygon class="cls-14" points="49.25 77.51 61.73 57.47 72 64.06 49.25 77.51"/><polygon class="cls-12" points="49.25 77.51 69.61 83.96 72 64.06 49.25 77.51"/><polygon class="cls-14" points="36 96.36 36 96.36 39.57 95.31 41.58 93.04 36 93.04 36 96.36"/><polygon class="cls-4" points="56.12 4.26 42.53 22.17 42.53 29.75 52.03 35.54 60.64 46.42 64.75 38.58 68.04 25.63 66.75 9.53 62.89 0 56.12 4.26"/><polygon class="cls-10" points="56.12 4.26 42.53 22.17 49.61 23.95 62.03 4.26 56.12 4.26"/><polygon class="cls-14" points="62.89 0 56.12 4.26 62.03 4.26 66.75 9.53 62.89 0"/><polygon class="cls-12" points="49.61 23.95 42.53 22.17 42.53 29.75 52.03 35.54 49.61 23.95"/><polygon class="cls-13" points="49.25 77.51 44.53 60.71 46.65 55.12 53.17 53 61.72 57.47 49.25 77.51"/><polygon class="cls-10" points="52.03 35.54 42.53 29.75 36 55.12 42.9 49.7 54.57 49.7 60.64 46.42 52.03 35.54"/><polygon class="cls-14" points="36 22.17 36 22.17 36 55.07 36 55.11 36 55.1 36 55.09 36 55.07 42.53 29.75 42.53 22.17 36 22.17"/><polygon class="cls-13" points="42.9 49.7 36 55.12 46.65 55.12 53.17 53 54.57 49.7 42.9 49.7"/><polygon class="cls-4" points="44.53 60.71 51.21 59.01 53.17 53 46.65 55.12 44.53 60.71"/><polygon class="cls-9" points="54.57 49.7 60.64 46.42 61.73 57.47 53.17 53 54.57 49.7"/><polygon class="cls-10" points="51.21 59.01 49.25 77.51 61.73 57.47 53.17 53 51.21 59.01"/><polygon class="cls-15" points="64.75 38.58 60.64 46.42 61.73 57.47 72 64.06 64.75 38.58"/><polygon class="cls-11" points="40.57 83.36 40.57 85.93 41.86 87.74 46.26 89.49 49.25 77.51 40.57 83.36"/><polygon class="cls-17" points="66.75 9.53 49.61 23.95 68.04 25.63 66.75 9.53"/><polygon class="cls-17" points="49.61 23.95 60.64 46.42 64.75 38.58 49.61 23.95"/><polygon class="cls-6" points="36 55.18 36 55.15 36 55.12 36 55.18 36 82.29 36 82.29 40.57 83.35 36 55.18"/><polygon class="cls-7" points="40.57 83.36 40.57 85.93 41.86 87.74 39.43 91.22 36 93.04 36 82.29 40.57 83.36"/><polygon class="cls-5" points="40.57 85.93 36 87.77 36 93.04 39.43 91.22 41.86 87.74 40.57 85.93"/><polygon class="cls-9" points="36 55.12 36 55.14 36 55.15 36 55.18 40.57 83.35 49.25 77.51 44.53 60.71 46.65 55.12 36 55.12"/><polygon class="cls-2" points="45.66 59.7 50.59 58.45 52.04 54.01 47.23 55.57 45.66 59.7"/><polygon class="cls-3" points="50.59 58.45 52.04 54.01 47.23 55.57 50.59 58.45"/><polygon class="cls-8" points="47.25 58.28 49.72 57.65 50.44 55.43 47.23 55.57 47.25 58.28"/><polygon class="cls-1" points="48.17 58.28 49.21 58.02 49.51 57.09 48.16 57.15 48.17 58.28"/></g><g><polygon class="cls-12" points="30.14 87.74 32.57 91.22 36 93.04 36 93.04 30.42 93.04 25.74 89.49 30.14 87.74"/><polygon class="cls-14" points="22.75 77.51 10.27 57.47 0 64.06 22.75 77.51"/><polygon class="cls-12" points="22.75 77.51 2.39 83.96 0 64.06 22.75 77.51"/><polygon class="cls-14" points="36 96.36 36 96.36 32.43 95.31 30.42 93.04 36 93.04 36 96.36"/><polygon class="cls-4" points="15.88 4.26 29.47 22.17 29.47 29.75 19.97 35.54 11.36 46.42 7.25 38.58 3.96 25.63 5.25 9.53 9.11 0 15.88 4.26"/><polygon class="cls-10" points="15.88 4.26 29.47 22.17 22.39 23.95 9.97 4.26 15.88 4.26"/><polygon class="cls-14" points="9.11 0 15.88 4.26 9.97 4.26 5.25 9.53 9.11 0"/><polygon class="cls-12" points="22.39 23.95 29.47 22.17 29.47 29.75 19.97 35.54 22.39 23.95"/><polygon class="cls-13" points="22.75 77.51 27.47 60.71 25.35 55.12 18.83 53 10.27 57.47 22.75 77.51"/><polygon class="cls-10" points="19.97 35.54 29.47 29.75 36 55.12 29.1 49.7 17.42 49.7 11.36 46.42 19.97 35.54"/><polygon class="cls-14" points="36 22.17 36 22.17 36 55.07 36 55.11 36 55.1 36 55.09 36 55.07 29.47 29.75 29.47 22.17 36 22.17"/><polygon class="cls-13" points="29.1 49.7 36 55.12 25.35 55.12 18.83 53 17.42 49.7 29.1 49.7"/><polygon class="cls-4" points="27.47 60.71 20.79 59.01 18.83 53 25.35 55.12 27.47 60.71"/><polygon class="cls-9" points="17.42 49.7 11.36 46.42 10.27 57.47 18.83 53 17.42 49.7"/><polygon class="cls-10" points="20.79 59.01 22.75 77.51 10.27 57.47 18.83 53 20.79 59.01"/><polygon class="cls-15" points="7.25 38.58 11.36 46.42 10.27 57.47 0 64.06 7.25 38.58"/><polygon class="cls-11" points="31.43 83.36 31.43 85.93 30.14 87.74 25.74 89.49 22.75 77.51 31.43 83.36"/><polygon class="cls-17" points="5.25 9.53 22.39 23.95 3.96 25.63 5.25 9.53"/><polygon class="cls-17" points="22.39 23.95 11.36 46.42 7.25 38.58 22.39 23.95"/><polygon class="cls-6" points="36 55.18 36 55.15 36 55.12 36 55.18 36 82.29 36 82.29 31.43 83.35 36 55.18"/><polygon class="cls-7" points="31.43 83.36 31.43 85.93 30.14 87.74 32.57 91.22 36 93.04 36 82.29 31.43 83.36"/><polygon class="cls-5" points="31.43 85.93 36 87.77 36 93.04 32.57 91.22 30.14 87.74 31.43 85.93"/><polygon class="cls-9" points="36 55.12 36 55.14 36 55.15 36 55.18 31.43 83.35 22.75 77.51 27.47 60.71 25.35 55.12 36 55.12"/><polygon class="cls-2" points="26.34 59.7 21.41 58.45 19.96 54.01 24.77 55.57 26.34 59.7"/><polygon class="cls-3" points="21.41 58.45 19.96 54.01 24.77 55.57 21.41 58.45"/><polygon class="cls-8" points="24.75 58.28 22.28 57.65 21.55 55.43 24.77 55.57 24.75 58.28"/><polygon class="cls-1" points="23.83 58.28 22.79 58.02 22.49 57.09 23.84 57.15 23.83 58.28"/></g></g></svg>