<?xml version="1.0" encoding="UTF-8"?><svg xmlns="http://www.w3.org/2000/svg" xmlns:xlink="http://www.w3.org/1999/xlink" viewBox="0 0 72 108"><defs><style>.cls-1{font-size:4.52px;}.cls-1,.cls-2,.cls-3,.cls-4,.cls-5,.cls-6,.cls-7,.cls-8{fill:#fff;}.cls-1,.cls-2,.cls-7,.cls-8{font-family:Montserrat-Bold, Montserrat;}.cls-9{fill:url(#linear-gradient-2);}.cls-2{font-size:3.7px;}.cls-10{fill:#93908f;}.cls-10,.cls-11,.cls-12,.cls-13,.cls-14,.cls-15,.cls-16,.cls-17,.cls-18,.cls-19,.cls-20,.cls-21{mix-blend-mode:multiply;}.cls-10,.cls-13,.cls-18,.cls-19{opacity:.67;}.cls-22{fill:#121e3d;}.cls-11{fill:url(#linear-gradient-8);}.cls-11,.cls-14,.cls-16{opacity:.69;}.cls-23{fill:url(#linear-gradient-17);}.cls-24{letter-spacing:0em;}.cls-12{fill:url(#radial-gradient-6);}.cls-25{fill:#8e8a88;}.cls-4{opacity:.45;}.cls-4,.cls-5{mix-blend-mode:overlay;}.cls-26{fill:url(#linear-gradient-15);}.cls-27{fill:#cc3911;}.cls-13{fill:#f44b16;}.cls-14{fill:url(#linear-gradient-18);}.cls-28{fill:url(#linear-gradient-28);}.cls-29{fill:url(#linear-gradient-14);}.cls-30{fill:url(#linear-gradient-36);}.cls-31{fill:url(#linear-gradient-20);}.cls-32{fill:url(#linear-gradient-6);}.cls-33{isolation:isolate;}.cls-34{letter-spacing:0em;}.cls-15{fill:url(#radial-gradient-4);}.cls-35{fill:url(#linear-gradient-35);}.cls-36{fill:url(#linear-gradient-32);}.cls-37{fill:url(#linear-gradient-11);}.cls-16{fill:url(#linear-gradient-27);}.cls-17{fill:url(#radial-gradient-5);}.cls-38{fill:url(#radial-gradient-8);opacity:.3;}.cls-39{fill:url(#linear-gradient-10);}.cls-40{fill:#eb3723;}.cls-6{font-family:BebasNeueBold, 'Bebas Neue';font-size:11.25px;}.cls-41{fill:url(#radial-gradient);}.cls-7,.cls-8{font-size:4.09px;}.cls-42{fill:url(#linear-gradient-16);}.cls-43{letter-spacing:-.07em;}.cls-44{fill:url(#linear-gradient-31);}.cls-45{letter-spacing:-.02em;}.cls-46{fill:url(#linear-gradient-21);}.cls-47{fill:url(#linear-gradient-25);}.cls-48{fill:url(#linear-gradient-5);}.cls-49{fill:url(#radial-gradient-2);}.cls-50{fill:url(#linear-gradient-34);}.cls-51{letter-spacing:0em;}.cls-8{letter-spacing:0em;}.cls-52{fill:url(#linear-gradient-7);}.cls-53{letter-spacing:-.01em;}.cls-19{fill:#933116;}.cls-54{fill:url(#linear-gradient-24);}.cls-55{fill:#6d2b07;}.cls-56{fill:url(#linear-gradient-9);}.cls-57{fill:url(#linear-gradient-22);}.cls-58{fill:url(#linear-gradient-3);}.cls-59{fill:url(#linear-gradient);}.cls-60{fill:url(#linear-gradient-33);}.cls-61{fill:url(#linear-gradient-29);}.cls-62{fill:url(#linear-gradient-30);}.cls-20{fill:url(#radial-gradient-3);}.cls-63{fill:url(#linear-gradient-23);}.cls-64{fill:url(#linear-gradient-19);}.cls-21{fill:url(#radial-gradient-7);}.cls-65{fill:url(#linear-gradient-4);}.cls-66{letter-spacing:-.02em;}.cls-67{letter-spacing:0em;}.cls-68{fill:url(#linear-gradient-12);}.cls-69{fill:url(#linear-gradient-13);}.cls-70{fill:#1268c6;}.cls-71{fill:url(#linear-gradient-26);}</style><linearGradient id="linear-gradient" x1="6.45" y1="23.96" x2="68.02" y2="85.52" gradientTransform="translate(-17.51 89.51) rotate(-90)" gradientUnits="userSpaceOnUse"><stop offset="0" stop-color="#6dc0fc"/><stop offset="1" stop-color="#4652fa"/></linearGradient><radialGradient id="radial-gradient" cx="7.6" cy="22.87" fx="7.6" fy="22.87" r="378.41" gradientTransform="translate(30.87 36.81) scale(.14 .27)" gradientUnits="userSpaceOnUse"><stop offset="0" stop-color="#193575"/><stop offset="1" stop-color="#121e3d"/></radialGradient><linearGradient id="linear-gradient-2" x1="69.18" y1="41.61" x2="17.38" y2="-10.18" gradientTransform="translate(27.56 44.44) rotate(-90)" xlink:href="#linear-gradient"/><radialGradient id="radial-gradient-2" cx="7.6" cy="22.87" fx="7.6" fy="22.87" r="378.41" xlink:href="#radial-gradient"/><linearGradient id="linear-gradient-3" x1="23.54" y1="8.44" x2="48.9" y2="8.44" gradientTransform="matrix(1, 0, 0, 1, 0, 0)" gradientUnits="userSpaceOnUse"><stop offset="0" stop-color="#6dc0fc"/><stop offset="1" stop-color="#82e7c4"/></linearGradient><radialGradient id="radial-gradient-3" cx="-90.22" cy="-33.65" fx="-90.22" fy="-33.65" r="20.15" gradientTransform="translate(30.87 36.81) scale(.14 .27)" gradientUnits="userSpaceOnUse"><stop offset="0" stop-color="#2a0029"/><stop offset="1" stop-color="#fff"/></radialGradient><linearGradient id="linear-gradient-4" x1="8.22" y1="25.07" x2="10.41" y2="25.07" gradientTransform="matrix(1, 0, 0, 1, 0, 0)" gradientUnits="userSpaceOnUse"><stop offset="0" stop-color="#f78614"/><stop offset="1" stop-color="#ffbe06"/></linearGradient><linearGradient id="linear-gradient-5" x1="10.64" y1="30.07" x2="7.71" y2="27.14" xlink:href="#linear-gradient-4"/><linearGradient id="linear-gradient-6" x1="7.78" y1="27.21" x2="11.33" y2="30.77" xlink:href="#linear-gradient-4"/><linearGradient id="linear-gradient-7" x1="12.07" y1="31.5" x2="6.59" y2="26.02" xlink:href="#linear-gradient-4"/><linearGradient id="linear-gradient-8" x1="9.98" y1="22.99" x2="9.45" y2="23.25" gradientTransform="matrix(1, 0, 0, 1, 0, 0)" gradientUnits="userSpaceOnUse"><stop offset="0" stop-color="#fff"/><stop offset="1" stop-color="#121e3d"/></linearGradient><linearGradient id="linear-gradient-9" x1="44.87" y1="28.38" x2="42.47" y2="25.98" xlink:href="#linear-gradient-4"/><linearGradient id="linear-gradient-10" x1="47.64" y1="28.38" x2="45.24" y2="25.98" xlink:href="#linear-gradient-4"/><linearGradient id="linear-gradient-11" x1="50.42" y1="28.38" x2="48.02" y2="25.98" xlink:href="#linear-gradient-4"/><linearGradient id="linear-gradient-12" x1="53.19" y1="28.38" x2="50.79" y2="25.98" xlink:href="#linear-gradient-4"/><linearGradient id="linear-gradient-13" x1="55.96" y1="28.38" x2="53.56" y2="25.98" xlink:href="#linear-gradient-4"/><radialGradient id="radial-gradient-4" cy="22.81" fy="22.81" r="20.15" xlink:href="#radial-gradient-3"/><linearGradient id="linear-gradient-14" x1="8.22" y1="40.19" x2="10.41" y2="40.19" gradientTransform="matrix(1, 0, 0, 1, 0, 0)" gradientUnits="userSpaceOnUse"><stop offset="0" stop-color="#bbb"/><stop offset="1" stop-color="#fff"/></linearGradient><linearGradient id="linear-gradient-15" x1="10.64" y1="45.19" x2="7.71" y2="42.25" xlink:href="#linear-gradient-14"/><linearGradient id="linear-gradient-16" x1="7.78" y1="42.33" x2="11.33" y2="45.88" xlink:href="#linear-gradient-14"/><linearGradient id="linear-gradient-17" x1="12.07" y1="46.62" x2="6.59" y2="41.14" xlink:href="#linear-gradient-14"/><linearGradient id="linear-gradient-18" x1="9.98" y1="38.11" x2="9.45" y2="38.37" xlink:href="#linear-gradient-8"/><linearGradient id="linear-gradient-19" x1="44.87" y1="43.5" x2="42.47" y2="41.1" xlink:href="#linear-gradient-4"/><linearGradient id="linear-gradient-20" x1="47.64" y1="43.5" x2="45.24" y2="41.1" xlink:href="#linear-gradient-4"/><linearGradient id="linear-gradient-21" x1="50.42" y1="43.5" x2="48.02" y2="41.1" xlink:href="#linear-gradient-4"/><linearGradient id="linear-gradient-22" x1="53.19" y1="43.5" x2="50.79" y2="41.1" xlink:href="#linear-gradient-4"/><radialGradient id="radial-gradient-5" cy="83.84" fy="83.84" r="20.15" xlink:href="#radial-gradient-3"/><linearGradient id="linear-gradient-23" x1="8.22" y1="56.53" x2="10.41" y2="56.53" gradientTransform="matrix(1, 0, 0, 1, 0, 0)" gradientUnits="userSpaceOnUse"><stop offset="0" stop-color="#91410d"/><stop offset="1" stop-color="#cc8139"/></linearGradient><linearGradient id="linear-gradient-24" x1="10.64" y1="61.53" x2="7.71" y2="58.6" xlink:href="#linear-gradient-23"/><linearGradient id="linear-gradient-25" x1="7.78" y1="58.67" x2="11.33" y2="62.23" xlink:href="#linear-gradient-23"/><linearGradient id="linear-gradient-26" x1="12.07" y1="62.96" x2="6.59" y2="57.48" xlink:href="#linear-gradient-23"/><linearGradient id="linear-gradient-27" x1="9.98" y1="54.45" x2="9.45" y2="54.71" xlink:href="#linear-gradient-8"/><linearGradient id="linear-gradient-28" x1="44.87" y1="59.84" x2="42.47" y2="57.44" xlink:href="#linear-gradient-4"/><linearGradient id="linear-gradient-29" x1="47.64" y1="59.84" x2="45.24" y2="57.44" xlink:href="#linear-gradient-4"/><linearGradient id="linear-gradient-30" x1="50.42" y1="59.84" x2="48.02" y2="57.44" xlink:href="#linear-gradient-4"/><linearGradient id="linear-gradient-31" x1="53.19" y1="59.84" x2="50.79" y2="57.44" xlink:href="#linear-gradient-4"/><radialGradient id="radial-gradient-6" cy="196.02" fy="196.02" r="20.15" xlink:href="#radial-gradient-3"/><linearGradient id="linear-gradient-32" x1="44.87" y1="89.87" x2="42.47" y2="87.47" xlink:href="#linear-gradient-4"/><linearGradient id="linear-gradient-33" x1="47.64" y1="89.87" x2="45.24" y2="87.47" xlink:href="#linear-gradient-4"/><linearGradient id="linear-gradient-34" x1="48.12" y1="88.25" x2="50.01" y2="88.25" xlink:href="#linear-gradient-4"/><radialGradient id="radial-gradient-7" cy="140.64" fy="140.64" r="20.15" xlink:href="#radial-gradient-3"/><linearGradient id="linear-gradient-35" x1="44.87" y1="75.05" x2="42.47" y2="72.64" xlink:href="#linear-gradient-4"/><linearGradient id="linear-gradient-36" x1="47.64" y1="75.05" x2="45.24" y2="72.64" xlink:href="#linear-gradient-4"/><radialGradient id="radial-gradient-8" cx="36" cy="105.64" fx="36" fy="105.64" r="22.8" gradientTransform="translate(0 -.29)" gradientUnits="userSpaceOnUse"><stop offset="0" stop-color="#fff"/><stop offset=".08" stop-color="#f5f5f5"/><stop offset=".23" stop-color="#dcdcdc"/><stop offset=".4" stop-color="#b3b3b3"/><stop offset=".61" stop-color="#7a7a7a"/><stop offset=".85" stop-color="#333"/><stop offset="1" stop-color="#000"/></radialGradient></defs><g class="cls-33"><g id="Layer_2"><g id="OBJECTS"><g><g><rect class="cls-59" x="-11.04" y="17.51" width="94.07" height="72" rx="24.32" ry="24.32" transform="translate(89.51 17.51) rotate(90)"/><rect class="cls-41" x=".6" y="7.61" width="70.79" height="91.8" rx="20.07" ry="20.07"/></g><g><rect class="cls-9" x="27.56" y="-7.29" width="16.87" height="31.45" rx="8.39" ry="8.39" transform="translate(44.44 -27.56) rotate(90)"/><rect class="cls-49" x="20.91" y="1.2" width="30.17" height="14.48" rx="7.2" ry="7.2"/><g><text class="cls-6" transform="translate(23.3 12.38) scale(.53 1)"><tspan x="0" y="0">LEADERB</tspan><tspan class="cls-67" x="30.36" y="0">O</tspan><tspan x="34.8" y="0">ARD</tspan></text><g><path class="cls-58" d="M23.54,4.51h.66v6.75h1.08v1.12h-1.74V4.51Z"/><path class="cls-58" d="M26.22,7.83h.9v1.12h-.9v2.31h1.14v1.12h-1.79V4.51h1.79v1.12h-1.14v2.19Z"/><path class="cls-58" d="M29.9,12.38h-.66l-.11-1.43h-.81l-.11,1.43h-.6l.67-7.87h.96l.67,7.87Zm-1.5-2.5h.63l-.32-3.98-.32,3.98Z"/><path class="cls-58" d="M30.2,4.51h1.04c.66,0,.98,.69,.98,1.95v3.98c0,1.26-.32,1.95-.98,1.95h-1.04V4.51Zm.66,1.12v5.62h.37c.21,0,.33-.2,.33-.76V6.4c0-.56-.13-.76-.33-.76h-.37Z"/><path class="cls-58" d="M33.3,7.83h.9v1.12h-.9v2.31h1.14v1.12h-1.79V4.51h1.79v1.12h-1.14v2.19Z"/><path class="cls-58" d="M36.22,12.38c-.04-.2-.06-.33-.06-.97v-1.24c0-.73-.13-1-.43-1h-.23v3.21h-.66V4.51h.99c.68,0,.98,.6,.98,1.81v.62c0,.81-.14,1.34-.43,1.6,.33,.26,.44,.85,.44,1.68v1.21c0,.38,0,.66,.07,.96h-.67Zm-.72-6.75v2.42h.26c.25,0,.4-.2,.4-.83v-.78c0-.56-.1-.81-.33-.81h-.32Z"/><path class="cls-58" d="M39.22,6.32v.28c0,.81-.13,1.33-.42,1.59,.35,.26,.49,.85,.49,1.69v.64c0,1.21-.34,1.87-1,1.87h-1.03V4.51h.99c.68,0,.98,.6,.98,1.81Zm-1.31-.69v2.08h.26c.25,0,.39-.2,.39-.83v-.44c0-.56-.1-.81-.33-.81h-.32Zm0,3.21v2.42h.38c.22,0,.34-.19,.34-.78v-.69c0-.73-.12-.96-.42-.96h-.29Z"/><path class="cls-58" d="M39.62,6.4c0-1.26,.35-1.98,1-1.98s1,.72,1,1.98v4.09c0,1.26-.35,1.98-1,1.98s-1-.72-1-1.98V6.4Zm.66,4.17c0,.56,.13,.78,.34,.78s.34-.21,.34-.78V6.32c0-.56-.13-.78-.34-.78s-.34,.21-.34,.78v4.25Z"/><path class="cls-58" d="M44.17,12.38h-.66l-.11-1.43h-.81l-.11,1.43h-.6l.67-7.87h.96l.67,7.87Zm-1.5-2.5h.63l-.32-3.98-.32,3.98Z"/><path class="cls-58" d="M45.85,12.38c-.04-.2-.06-.33-.06-.97v-1.24c0-.73-.13-1-.43-1h-.23v3.21h-.66V4.51h.99c.68,0,.97,.6,.97,1.81v.62c0,.81-.14,1.34-.43,1.6,.33,.26,.44,.85,.44,1.68v1.21c0,.38,0,.66,.07,.96h-.67Zm-.72-6.75v2.42h.26c.25,0,.39-.2,.39-.83v-.78c0-.56-.1-.81-.33-.81h-.32Z"/><path class="cls-58" d="M46.88,4.51h1.04c.66,0,.98,.69,.98,1.95v3.98c0,1.26-.32,1.95-.98,1.95h-1.04V4.51Zm.66,1.12v5.62h.37c.21,0,.33-.2,.33-.76V6.4c0-.56-.12-.76-.33-.76h-.37Z"/></g></g></g><g><g><g><ellipse class="cls-3" cx="17.54" cy="26.36" rx="3.21" ry="6.04"/><ellipse class="cls-20" cx="18.03" cy="27.8" rx="2.87" ry="5.39"/><path class="cls-22" d="M20.41,26.36c0,1.32-.25,2.52-.67,3.46-.53,1.18-1.32,1.93-2.2,1.93s-1.67-.75-2.2-1.93c-.42-.94-.67-2.14-.67-3.46,0-2.98,1.28-5.39,2.87-5.39s2.87,2.42,2.87,5.39Z"/><path class="cls-3" d="M19.64,29.28c-.08-.27-.91-.66-1.29-.9-.1-.06-.19-.17-.19-.17-.1-.17-.15-.5-.17-.8,.01-.02,.02-.03,.04-.05,.21-.35,.33-.86,.4-1.22,.01-.08,.02-.16,.03-.24,.29-.22,.27-.78,.21-1.1,0-.04-.02-.07-.03-.08,.03-.29,.05-.76-.01-1.42-.07-.66-.52-1.04-.94-1.13-.04,0-.22-.03-.4,.06-.12,.06-.22,.22-.28,.39,0,0-.45,.06-.54,.87-.07,.6-.05,.99-.03,1.23,0,0,0,.02,0,.03-.06,.33-.08,.92,.24,1.12,.01,.09,.02,.18,.04,.26,.07,.36,.19,.87,.4,1.22h0c-.02,.31-.07,.67-.17,.85,0,0-.09,.11-.19,.17-.38,.24-1.21,.63-1.29,.9-.02,.07-.06,.27-.1,.54,.53,1.18,1.32,1.93,2.2,1.93s1.67-.75,2.2-1.93c-.04-.27-.08-.46-.1-.54Z"/></g><g><path class="cls-65" d="M8.57,26.11v-.74c0-.37,.16-.67,.36-.67h.77c.2,0,.36,.3,.36,.67v.74h.35v-.74c0-.74-.32-1.34-.71-1.34h-.77c-.39,0-.71,.6-.71,1.34v.74h.35Z"/><ellipse class="cls-48" cx="9.31" cy="28.75" rx="1.86" ry="3.5"/><ellipse class="cls-32" cx="9.31" cy="28.75" rx="1.77" ry="3.32"/><g><ellipse class="cls-52" cx="9.31" cy="28.75" rx="1.51" ry="2.83"/><path class="cls-4" d="M7.91,28.93c0-1.56,.67-2.83,1.51-2.83,.39,0,.74,.28,1.01,.74-.28-.57-.67-.93-1.11-.93-.83,0-1.51,1.27-1.51,2.83,0,.83,.19,1.57,.49,2.09-.24-.5-.39-1.17-.39-1.9Z"/><path class="cls-13" d="M10.27,26.55c.21,.49,.41,1.25,.41,1.93,0,1.56-.67,2.83-1.51,2.83-.36,0-.76-.37-1.02-.77,.28,.63,.7,1.04,1.16,1.04,.83,0,1.51-1.27,1.51-2.83,0-.88-.22-1.67-.55-2.19Z"/></g><g class="cls-18"><path class="cls-27" d="M9.61,27.15v3.19h-.44v-2.51h-.33v-.68h.77Z"/></g><g><path class="cls-70" d="M9.51,21.27l-.67,3.42c-.03,.18,.04,.37,.14,.37h.14l.74-3.79h-.35Z"/><polygon class="cls-3" points="9.86 21.27 9.12 25.05 9.47 25.05 10.21 21.27 9.86 21.27"/><path class="cls-40" d="M10.21,21.27l-.57,2.89-.17,.89h.25s.07-.02,.09-.06c.02-.03,.04-.07,.05-.12l.71-3.61h-.35Z"/><path class="cls-11" d="M10.03,23.94l-.18,.94s-.03,.09-.05,.12c-.03,.04-.06,.06-.09,.06h-.74c-.1,0-.17-.19-.14-.37l.67-3.4,.52,2.66Z"/><path class="cls-70" d="M9.07,21.27h-.35l.74,3.78h.25s.07-.02,.09-.06l-.16-.83-.57-2.89Z"/><polygon class="cls-3" points="8.38 21.27 9.12 25.05 9.47 25.05 8.73 21.27 8.38 21.27"/><path class="cls-40" d="M8.03,21.27l.71,3.61c.02,.11,.08,.18,.14,.18h.25l-.74-3.79h-.35Z"/></g></g></g><g><g><rect class="cls-5" x="23.19" y="23.07" width="44.14" height="7.38" rx="3.67" ry="3.67"/><text class="cls-2" transform="translate(24.87 28.07) scale(.53 1)"><tspan x="0" y="0">Pl</tspan><tspan class="cls-34" x="3.82" y="0">a</tspan><tspan class="cls-66" x="6.06" y="0">y</tspan><tspan x="8.22" y="0">er Na</tspan><tspan class="cls-51" x="18.46" y="0">m</tspan><tspan class="cls-24" x="22.36" y="0">e</tspan></text></g><text class="cls-7" transform="translate(59.27 28.21) scale(.53 1)"><tspan x="0" y="0">2980</tspan></text><g><path class="cls-56" d="M43.58,25.13l.18,1.05s.03,.08,.06,.08h.59c.06,0,.08,.14,.04,.21l-.48,.65s-.03,.08-.02,.13l.18,1.05c.02,.1-.05,.19-.09,.13l-.48-.65s-.05-.03-.07,0l-.48,.65c-.05,.06-.11-.02-.09-.13l.18-1.05s0-.1-.02-.13l-.48-.65c-.05-.06-.02-.21,.04-.21h.59s.05-.03,.06-.08l.18-1.05c.02-.1,.1-.1,.12,0Z"/><path class="cls-39" d="M46.35,25.13l.18,1.05s.03,.08,.06,.08h.59c.06,0,.08,.14,.04,.21l-.48,.65s-.03,.08-.02,.13l.18,1.05c.02,.1-.05,.19-.09,.13l-.48-.65s-.05-.03-.07,0l-.48,.65c-.05,.06-.11-.02-.09-.13l.18-1.05s0-.1-.02-.13l-.48-.65c-.05-.06-.02-.21,.04-.21h.59s.05-.03,.06-.08l.18-1.05c.02-.1,.1-.1,.12,0Z"/><path class="cls-37" d="M49.12,25.13l.18,1.05s.03,.08,.06,.08h.59c.06,0,.08,.14,.04,.21l-.48,.65s-.03,.08-.02,.13l.18,1.05c.02,.1-.05,.19-.09,.13l-.48-.65s-.05-.03-.07,0l-.48,.65c-.05,.06-.11-.02-.09-.13l.18-1.05s0-.1-.02-.13l-.48-.65c-.05-.06-.02-.21,.04-.21h.59s.05-.03,.06-.08l.18-1.05c.02-.1,.1-.1,.12,0Z"/><path class="cls-68" d="M51.89,25.13l.18,1.05s.03,.08,.06,.08h.59c.06,0,.08,.14,.04,.21l-.48,.65s-.03,.08-.02,.13l.18,1.05c.02,.1-.05,.19-.09,.13l-.48-.65s-.05-.03-.07,0l-.48,.65c-.05,.06-.11-.02-.09-.13l.18-1.05s0-.1-.02-.13l-.48-.65c-.05-.06-.02-.21,.04-.21h.59s.05-.03,.06-.08l.18-1.05c.02-.1,.1-.1,.12,0Z"/><path class="cls-69" d="M54.67,25.13l.18,1.05s.03,.08,.06,.08h.59c.06,0,.08,.14,.04,.21l-.48,.65s-.03,.08-.02,.13l.18,1.05c.02,.1-.05,.19-.09,.13l-.48-.65s-.05-.03-.07,0l-.48,.65c-.05,.06-.11-.02-.09-.13l.18-1.05s0-.1-.02-.13l-.48-.65c-.05-.06-.02-.21,.04-.21h.59s.05-.03,.06-.08l.18-1.05c.02-.1,.1-.1,.12,0Z"/></g></g></g><g><g><g><ellipse class="cls-3" cx="17.54" cy="41.48" rx="3.21" ry="6.04"/><ellipse class="cls-15" cx="18.03" cy="42.91" rx="2.87" ry="5.39"/><path class="cls-22" d="M20.41,41.48c0,1.32-.25,2.52-.67,3.46-.53,1.18-1.32,1.93-2.2,1.93s-1.67-.75-2.2-1.93c-.42-.94-.67-2.14-.67-3.46,0-2.98,1.28-5.39,2.87-5.39s2.87,2.42,2.87,5.39Z"/><path class="cls-3" d="M19.64,44.4c-.08-.27-.91-.66-1.29-.9-.1-.06-.19-.17-.19-.17-.1-.17-.15-.5-.17-.8,.01-.02,.02-.03,.04-.05,.21-.35,.33-.86,.4-1.22,.01-.08,.02-.16,.03-.24,.29-.22,.27-.78,.21-1.1,0-.04-.02-.07-.03-.08,.03-.29,.05-.76-.01-1.42-.07-.66-.52-1.04-.94-1.13-.04,0-.22-.03-.4,.06-.12,.06-.22,.22-.28,.39,0,0-.45,.06-.54,.87-.07,.6-.05,.99-.03,1.23,0,0,0,.02,0,.03-.06,.33-.08,.92,.24,1.12,.01,.09,.02,.18,.04,.26,.07,.36,.19,.87,.4,1.22h0c-.02,.31-.07,.67-.17,.85,0,0-.09,.11-.19,.17-.38,.24-1.21,.63-1.29,.9-.02,.07-.06,.27-.1,.54,.53,1.18,1.32,1.93,2.2,1.93s1.67-.75,2.2-1.93c-.04-.27-.08-.46-.1-.54Z"/></g><g><path class="cls-29" d="M8.57,41.22v-.74c0-.37,.16-.67,.36-.67h.77c.2,0,.36,.3,.36,.67v.74h.35v-.74c0-.74-.32-1.34-.71-1.34h-.77c-.39,0-.71,.6-.71,1.34v.74h.35Z"/><ellipse class="cls-26" cx="9.31" cy="43.86" rx="1.86" ry="3.5"/><ellipse class="cls-42" cx="9.31" cy="43.86" rx="1.77" ry="3.32"/><g><ellipse class="cls-23" cx="9.31" cy="43.86" rx="1.51" ry="2.83"/><path class="cls-4" d="M7.91,44.05c0-1.56,.67-2.83,1.51-2.83,.39,0,.74,.28,1.01,.74-.28-.57-.67-.93-1.11-.93-.83,0-1.51,1.27-1.51,2.83,0,.83,.19,1.57,.49,2.09-.24-.5-.39-1.17-.39-1.9Z"/><path class="cls-10" d="M10.27,41.67c.21,.49,.41,1.25,.41,1.93,0,1.56-.67,2.83-1.51,2.83-.36,0-.76-.37-1.02-.77,.28,.63,.7,1.04,1.16,1.04,.83,0,1.51-1.27,1.51-2.83,0-.88-.22-1.67-.55-2.19Z"/><g class="cls-18"><path class="cls-25" d="M9.4,43.05c0-.16-.06-.25-.18-.25-.13,0-.29,.14-.43,.37l-.15-.57c.2-.28,.42-.45,.65-.45,.32,0,.55,.31,.55,.78,0,.32-.13,.65-.3,.98l-.32,.6h.67v.62h-1.19v-.51l.57-1.1c.09-.17,.15-.36,.15-.48Z"/></g></g><g><path class="cls-70" d="M9.51,36.38l-.67,3.42c-.03,.18,.04,.37,.14,.37h.14l.74-3.79h-.35Z"/><polygon class="cls-3" points="9.86 36.38 9.12 40.17 9.47 40.17 10.21 36.38 9.86 36.38"/><path class="cls-40" d="M10.21,36.38l-.57,2.89-.17,.89h.25s.07-.02,.09-.06c.02-.03,.04-.07,.05-.12l.71-3.61h-.35Z"/><path class="cls-14" d="M10.03,39.06l-.18,.94s-.03,.09-.05,.12c-.03,.04-.06,.06-.09,.06h-.74c-.1,0-.17-.19-.14-.37l.67-3.4,.52,2.66Z"/><path class="cls-70" d="M9.07,36.38h-.35l.74,3.78h.25s.07-.02,.09-.06l-.16-.83-.57-2.89Z"/><polygon class="cls-3" points="8.38 36.38 9.12 40.17 9.47 40.17 8.73 36.38 8.38 36.38"/><path class="cls-40" d="M8.03,36.38l.71,3.61c.02,.11,.08,.18,.14,.18h.25l-.74-3.79h-.35Z"/></g></g></g><g><g><rect class="cls-5" x="23.19" y="38.18" width="44.14" height="7.38" rx="3.67" ry="3.67"/><text class="cls-2" transform="translate(24.87 43.19) scale(.53 1)"><tspan x="0" y="0">Pl</tspan><tspan class="cls-34" x="3.82" y="0">a</tspan><tspan class="cls-66" x="6.06" y="0">y</tspan><tspan x="8.22" y="0">er Na</tspan><tspan class="cls-51" x="18.46" y="0">m</tspan><tspan class="cls-24" x="22.36" y="0">e</tspan></text></g><text class="cls-8" transform="translate(59.27 42.98) scale(.53 1)"><tspan x="0" y="0">2721</tspan></text><g><path class="cls-64" d="M43.58,40.25l.18,1.05s.03,.08,.06,.08h.59c.06,0,.08,.14,.04,.21l-.48,.65s-.03,.08-.02,.13l.18,1.05c.02,.1-.05,.19-.09,.13l-.48-.65s-.05-.03-.07,0l-.48,.65c-.05,.06-.11-.02-.09-.13l.18-1.05s0-.1-.02-.13l-.48-.65c-.05-.06-.02-.21,.04-.21h.59s.05-.03,.06-.08l.18-1.05c.02-.1,.1-.1,.12,0Z"/><path class="cls-31" d="M46.35,40.25l.18,1.05s.03,.08,.06,.08h.59c.06,0,.08,.14,.04,.21l-.48,.65s-.03,.08-.02,.13l.18,1.05c.02,.1-.05,.19-.09,.13l-.48-.65s-.05-.03-.07,0l-.48,.65c-.05,.06-.11-.02-.09-.13l.18-1.05s0-.1-.02-.13l-.48-.65c-.05-.06-.02-.21,.04-.21h.59s.05-.03,.06-.08l.18-1.05c.02-.1,.1-.1,.12,0Z"/><path class="cls-46" d="M49.12,40.25l.18,1.05s.03,.08,.06,.08h.59c.06,0,.08,.14,.04,.21l-.48,.65s-.03,.08-.02,.13l.18,1.05c.02,.1-.05,.19-.09,.13l-.48-.65s-.05-.03-.07,0l-.48,.65c-.05,.06-.11-.02-.09-.13l.18-1.05s0-.1-.02-.13l-.48-.65c-.05-.06-.02-.21,.04-.21h.59s.05-.03,.06-.08l.18-1.05c.02-.1,.1-.1,.12,0Z"/><path class="cls-57" d="M51.89,40.25l.18,1.05s.03,.08,.06,.08h.59c.06,0,.08,.14,.04,.21l-.48,.65s-.03,.08-.02,.13l.18,1.05c.02,.1-.05,.19-.09,.13l-.48-.65s-.05-.03-.07,0l-.48,.65c-.05,.06-.11-.02-.09-.13l.18-1.05s0-.1-.02-.13l-.48-.65c-.05-.06-.02-.21,.04-.21h.59s.05-.03,.06-.08l.18-1.05c.02-.1,.1-.1,.12,0Z"/><path class="cls-5" d="M54.67,40.25l.18,1.05s.03,.08,.06,.08h.59c.06,0,.08,.14,.04,.21l-.48,.65s-.03,.08-.02,.13l.18,1.05c.02,.1-.05,.19-.09,.13l-.48-.65s-.05-.03-.07,0l-.48,.65c-.05,.06-.11-.02-.09-.13l.18-1.05s0-.1-.02-.13l-.48-.65c-.05-.06-.02-.21,.04-.21h.59s.05-.03,.06-.08l.18-1.05c.02-.1,.1-.1,.12,0Z"/></g></g></g><g><g><g><ellipse class="cls-3" cx="17.54" cy="57.82" rx="3.21" ry="6.04"/><ellipse class="cls-17" cx="18.03" cy="59.25" rx="2.87" ry="5.39"/><path class="cls-22" d="M20.41,57.82c0,1.32-.25,2.52-.67,3.46-.53,1.18-1.32,1.93-2.2,1.93s-1.67-.75-2.2-1.93c-.42-.94-.67-2.14-.67-3.46,0-2.98,1.28-5.39,2.87-5.39s2.87,2.42,2.87,5.39Z"/><path class="cls-3" d="M19.64,60.74c-.08-.27-.91-.66-1.29-.9-.1-.06-.19-.17-.19-.17-.1-.17-.15-.5-.17-.8,.01-.02,.02-.03,.04-.05,.21-.35,.33-.86,.4-1.22,.01-.08,.02-.16,.03-.24,.29-.22,.27-.78,.21-1.1,0-.04-.02-.07-.03-.08,.03-.29,.05-.76-.01-1.42-.07-.66-.52-1.04-.94-1.13-.04,0-.22-.03-.4,.06-.12,.06-.22,.22-.28,.39,0,0-.45,.06-.54,.87-.07,.6-.05,.99-.03,1.23,0,0,0,.02,0,.03-.06,.33-.08,.92,.24,1.12,.01,.09,.02,.18,.04,.26,.07,.36,.19,.87,.4,1.22h0c-.02,.31-.07,.67-.17,.85,0,0-.09,.11-.19,.17-.38,.24-1.21,.63-1.29,.9-.02,.07-.06,.27-.1,.54,.53,1.18,1.32,1.93,2.2,1.93s1.67-.75,2.2-1.93c-.04-.27-.08-.46-.1-.54Z"/></g><g><path class="cls-63" d="M8.57,57.57v-.74c0-.37,.16-.67,.36-.67h.77c.2,0,.36,.3,.36,.67v.74h.35v-.74c0-.74-.32-1.34-.71-1.34h-.77c-.39,0-.71,.6-.71,1.34v.74h.35Z"/><ellipse class="cls-54" cx="9.31" cy="60.2" rx="1.86" ry="3.5"/><ellipse class="cls-47" cx="9.31" cy="60.2" rx="1.77" ry="3.32"/><g><ellipse class="cls-71" cx="9.31" cy="60.2" rx="1.51" ry="2.83"/><path class="cls-4" d="M7.91,60.39c0-1.56,.67-2.83,1.51-2.83,.39,0,.74,.28,1.01,.74-.28-.57-.67-.93-1.11-.93-.83,0-1.51,1.27-1.51,2.83,0,.83,.19,1.57,.49,2.09-.24-.5-.39-1.17-.39-1.9Z"/><path class="cls-19" d="M10.27,58.01c.21,.49,.41,1.25,.41,1.93,0,1.56-.67,2.83-1.51,2.83-.36,0-.76-.37-1.02-.77,.28,.63,.7,1.04,1.16,1.04,.83,0,1.51-1.27,1.51-2.83,0-.88-.22-1.67-.55-2.19Z"/></g><g><path class="cls-70" d="M9.51,52.72l-.67,3.42c-.03,.18,.04,.37,.14,.37h.14l.74-3.79h-.35Z"/><polygon class="cls-3" points="9.86 52.72 9.12 56.51 9.47 56.51 10.21 52.72 9.86 52.72"/><path class="cls-40" d="M10.21,52.72l-.57,2.89-.17,.89h.25s.07-.02,.09-.06c.02-.03,.04-.07,.05-.12l.71-3.61h-.35Z"/><path class="cls-16" d="M10.03,55.4l-.18,.94s-.03,.09-.05,.12c-.03,.04-.06,.06-.09,.06h-.74c-.1,0-.17-.19-.14-.37l.67-3.4,.52,2.66Z"/><path class="cls-70" d="M9.07,52.72h-.35l.74,3.78h.25s.07-.02,.09-.06l-.16-.83-.57-2.89Z"/><polygon class="cls-3" points="8.38 52.72 9.12 56.51 9.47 56.51 8.73 52.72 8.38 52.72"/><path class="cls-40" d="M8.03,52.72l.71,3.61c.02,.11,.08,.18,.14,.18h.25l-.74-3.79h-.35Z"/></g><path class="cls-55" d="M9.9,60.67c0,.57-.25,.96-.64,.96-.23,0-.46-.14-.62-.36l.17-.59c.12,.24,.27,.37,.42,.37,.17,0,.27-.13,.27-.37s-.1-.36-.27-.36h-.26v-.41l.37-.66h-.6v-.59h1.09v.45l-.42,.74,.08,.02c.25,.07,.42,.36,.42,.81Z"/></g></g><g><g><rect class="cls-5" x="23.19" y="54.52" width="44.14" height="7.38" rx="3.67" ry="3.67"/><text class="cls-2" transform="translate(24.87 59.53) scale(.53 1)"><tspan x="0" y="0">Pl</tspan><tspan class="cls-34" x="3.82" y="0">a</tspan><tspan class="cls-66" x="6.06" y="0">y</tspan><tspan x="8.22" y="0">er Na</tspan><tspan class="cls-51" x="18.46" y="0">m</tspan><tspan class="cls-24" x="22.36" y="0">e</tspan></text></g><text class="cls-7" transform="translate(59.27 59.67) scale(.53 1)"><tspan x="0" y="0">2</tspan><tspan class="cls-53" x="2.41" y="0">5</tspan><tspan x="4.79" y="0">79</tspan></text><g><path class="cls-28" d="M43.58,56.59l.18,1.05s.03,.08,.06,.08h.59c.06,0,.08,.14,.04,.21l-.48,.65s-.03,.08-.02,.13l.18,1.05c.02,.1-.05,.19-.09,.13l-.48-.65s-.05-.03-.07,0l-.48,.65c-.05,.06-.11-.02-.09-.13l.18-1.05s0-.1-.02-.13l-.48-.65c-.05-.06-.02-.21,.04-.21h.59s.05-.03,.06-.08l.18-1.05c.02-.1,.1-.1,.12,0Z"/><path class="cls-61" d="M46.35,56.59l.18,1.05s.03,.08,.06,.08h.59c.06,0,.08,.14,.04,.21l-.48,.65s-.03,.08-.02,.13l.18,1.05c.02,.1-.05,.19-.09,.13l-.48-.65s-.05-.03-.07,0l-.48,.65c-.05,.06-.11-.02-.09-.13l.18-1.05s0-.1-.02-.13l-.48-.65c-.05-.06-.02-.21,.04-.21h.59s.05-.03,.06-.08l.18-1.05c.02-.1,.1-.1,.12,0Z"/><path class="cls-62" d="M49.12,56.59l.18,1.05s.03,.08,.06,.08h.59c.06,0,.08,.14,.04,.21l-.48,.65s-.03,.08-.02,.13l.18,1.05c.02,.1-.05,.19-.09,.13l-.48-.65s-.05-.03-.07,0l-.48,.65c-.05,.06-.11-.02-.09-.13l.18-1.05s0-.1-.02-.13l-.48-.65c-.05-.06-.02-.21,.04-.21h.59s.05-.03,.06-.08l.18-1.05c.02-.1,.1-.1,.12,0Z"/><path class="cls-44" d="M51.89,56.59l.18,1.05s.03,.08,.06,.08h.59c.06,0,.08,.14,.04,.21l-.48,.65s-.03,.08-.02,.13l.18,1.05c.02,.1-.05,.19-.09,.13l-.48-.65s-.05-.03-.07,0l-.48,.65c-.05,.06-.11-.02-.09-.13l.18-1.05s0-.1-.02-.13l-.48-.65c-.05-.06-.02-.21,.04-.21h.59s.05-.03,.06-.08l.18-1.05c.02-.1,.1-.1,.12,0Z"/><path class="cls-5" d="M54.67,56.59l.18,1.05s.03,.08,.06,.08h.59c.06,0,.08,.14,.04,.21l-.48,.65s-.03,.08-.02,.13l.18,1.05c.02,.1-.05,.19-.09,.13l-.48-.65s-.05-.03-.07,0l-.48,.65c-.05,.06-.11-.02-.09-.13l.18-1.05s0-.1-.02-.13l-.48-.65c-.05-.06-.02-.21,.04-.21h.59s.05-.03,.06-.08l.18-1.05c.02-.1,.1-.1,.12,0Z"/></g></g></g><g><g><g><ellipse class="cls-3" cx="17.54" cy="87.86" rx="3.21" ry="6.04"/><ellipse class="cls-12" cx="18.03" cy="89.29" rx="2.87" ry="5.39"/><path class="cls-22" d="M20.41,87.86c0,1.32-.25,2.52-.67,3.46-.53,1.18-1.32,1.93-2.2,1.93s-1.67-.75-2.2-1.93c-.42-.94-.67-2.14-.67-3.46,0-2.98,1.28-5.39,2.87-5.39s2.87,2.42,2.87,5.39Z"/><path class="cls-3" d="M19.64,90.78c-.08-.27-.91-.66-1.29-.9-.1-.06-.19-.17-.19-.17-.1-.17-.15-.5-.17-.8,.01-.02,.02-.03,.04-.05,.21-.35,.33-.86,.4-1.22,.01-.08,.02-.16,.03-.24,.29-.22,.27-.78,.21-1.1,0-.04-.02-.07-.03-.08,.03-.29,.05-.76-.01-1.42-.07-.66-.52-1.04-.94-1.13-.04,0-.22-.03-.4,.06-.12,.06-.22,.22-.28,.39,0,0-.45,.06-.54,.87-.07,.6-.05,.99-.03,1.23,0,0,0,.02,0,.03-.06,.33-.08,.92,.24,1.12,.01,.09,.02,.18,.04,.26,.07,.36,.19,.87,.4,1.22h0c-.02,.31-.07,.67-.17,.85,0,0-.09,.11-.19,.17-.38,.24-1.21,.63-1.29,.9-.02,.07-.06,.27-.1,.54,.53,1.18,1.32,1.93,2.2,1.93s1.67-.75,2.2-1.93c-.04-.27-.08-.46-.1-.54Z"/></g><text class="cls-1" transform="translate(8.57 89.47) scale(.53 1)"><tspan x="0" y="0">5</tspan></text></g><g><g><rect class="cls-5" x="23.19" y="84.56" width="44.14" height="7.38" rx="3.67" ry="3.67"/><text class="cls-2" transform="translate(24.87 89.56) scale(.53 1)"><tspan x="0" y="0">Pl</tspan><tspan class="cls-34" x="3.82" y="0">a</tspan><tspan class="cls-66" x="6.06" y="0">y</tspan><tspan x="8.22" y="0">er Na</tspan><tspan class="cls-51" x="18.46" y="0">m</tspan><tspan class="cls-24" x="22.36" y="0">e</tspan></text></g><text class="cls-7" transform="translate(59.27 89.71) scale(.53 1)"><tspan x="0" y="0">1</tspan><tspan class="cls-45" x="1.6" y="0">7</tspan><tspan x="4.07" y="0">56</tspan></text><g><path class="cls-36" d="M43.58,86.63l.18,1.05s.03,.08,.06,.08h.59c.06,0,.08,.14,.04,.21l-.48,.65s-.03,.08-.02,.13l.18,1.05c.02,.1-.05,.19-.09,.13l-.48-.65s-.05-.03-.07,0l-.48,.65c-.05,.06-.11-.02-.09-.13l.18-1.05s0-.1-.02-.13l-.48-.65c-.05-.06-.02-.21,.04-.21h.59s.05-.03,.06-.08l.18-1.05c.02-.1,.1-.1,.12,0Z"/><path class="cls-60" d="M46.35,86.63l.18,1.05s.03,.08,.06,.08h.59c.06,0,.08,.14,.04,.21l-.48,.65s-.03,.08-.02,.13l.18,1.05c.02,.1-.05,.19-.09,.13l-.48-.65s-.05-.03-.07,0l-.48,.65c-.05,.06-.11-.02-.09-.13l.18-1.05s0-.1-.02-.13l-.48-.65c-.05-.06-.02-.21,.04-.21h.59s.05-.03,.06-.08l.18-1.05c.02-.1,.1-.1,.12,0Z"/><path class="cls-50" d="M49.12,86.63l.18,1.05s.03,.08,.06,.08h.59c.06,0,.08,.14,.04,.21l-.48,.65s-.03,.08-.02,.13l.18,1.05c.02,.1-.05,.19-.09,.13l-.48-.65s-.05-.03-.07,0l-.48,.65c-.05,.06-.11-.02-.09-.13l.18-1.05s0-.1-.02-.13l-.48-.65c-.05-.06-.02-.21,.04-.21h.59s.05-.03,.06-.08l.18-1.05c.02-.1,.1-.1,.12,0Z"/><path class="cls-5" d="M51.89,86.63l.18,1.05s.03,.08,.06,.08h.59c.06,0,.08,.14,.04,.21l-.48,.65s-.03,.08-.02,.13l.18,1.05c.02,.1-.05,.19-.09,.13l-.48-.65s-.05-.03-.07,0l-.48,.65c-.05,.06-.11-.02-.09-.13l.18-1.05s0-.1-.02-.13l-.48-.65c-.05-.06-.02-.21,.04-.21h.59s.05-.03,.06-.08l.18-1.05c.02-.1,.1-.1,.12,0Z"/><path class="cls-5" d="M54.67,86.63l.18,1.05s.03,.08,.06,.08h.59c.06,0,.08,.14,.04,.21l-.48,.65s-.03,.08-.02,.13l.18,1.05c.02,.1-.05,.19-.09,.13l-.48-.65s-.05-.03-.07,0l-.48,.65c-.05,.06-.11-.02-.09-.13l.18-1.05s0-.1-.02-.13l-.48-.65c-.05-.06-.02-.21,.04-.21h.59s.05-.03,.06-.08l.18-1.05c.02-.1,.1-.1,.12,0Z"/></g></g></g><g><g><g><ellipse class="cls-3" cx="17.54" cy="73.03" rx="3.21" ry="6.04"/><ellipse class="cls-21" cx="18.03" cy="74.46" rx="2.87" ry="5.39"/><path class="cls-22" d="M20.41,73.03c0,1.32-.25,2.52-.67,3.46-.53,1.18-1.32,1.93-2.2,1.93s-1.67-.75-2.2-1.93c-.42-.94-.67-2.14-.67-3.46,0-2.98,1.28-5.39,2.87-5.39s2.87,2.42,2.87,5.39Z"/><path class="cls-3" d="M19.64,75.95c-.08-.27-.91-.66-1.29-.9-.1-.06-.19-.17-.19-.17-.1-.17-.15-.5-.17-.8,.01-.02,.02-.03,.04-.05,.21-.35,.33-.86,.4-1.22,.01-.08,.02-.16,.03-.24,.29-.22,.27-.78,.21-1.1,0-.04-.02-.07-.03-.08,.03-.29,.05-.76-.01-1.42-.07-.66-.52-1.04-.94-1.13-.04,0-.22-.03-.4,.06-.12,.06-.22,.22-.28,.39,0,0-.45,.06-.54,.87-.07,.6-.05,.99-.03,1.23,0,0,0,.02,0,.03-.06,.33-.08,.92,.24,1.12,.01,.09,.02,.18,.04,.26,.07,.36,.19,.87,.4,1.22h0c-.02,.31-.07,.67-.17,.85,0,0-.09,.11-.19,.17-.38,.24-1.21,.63-1.29,.9-.02,.07-.06,.27-.1,.54,.53,1.18,1.32,1.93,2.2,1.93s1.67-.75,2.2-1.93c-.04-.27-.08-.46-.1-.54Z"/></g><text class="cls-1" transform="translate(8.57 74.64) scale(.53 1)"><tspan x="0" y="0">4</tspan></text></g><g><g><rect class="cls-5" x="23.19" y="69.73" width="44.14" height="7.38" rx="3.67" ry="3.67"/><text class="cls-2" transform="translate(24.87 74.73) scale(.53 1)"><tspan x="0" y="0">Pl</tspan><tspan class="cls-34" x="3.82" y="0">a</tspan><tspan class="cls-66" x="6.06" y="0">y</tspan><tspan x="8.22" y="0">er Na</tspan><tspan class="cls-51" x="18.46" y="0">m</tspan><tspan class="cls-24" x="22.36" y="0">e</tspan></text></g><text class="cls-7" transform="translate(59.27 74.88) scale(.53 1)"><tspan x="0" y="0">18</tspan><tspan class="cls-43" x="4.3" y="0">7</tspan><tspan x="6.57" y="0">4</tspan></text><g><path class="cls-35" d="M43.58,71.8l.18,1.05s.03,.08,.06,.08h.59c.06,0,.08,.14,.04,.21l-.48,.65s-.03,.08-.02,.13l.18,1.05c.02,.1-.05,.19-.09,.13l-.48-.65s-.05-.03-.07,0l-.48,.65c-.05,.06-.11-.02-.09-.13l.18-1.05s0-.1-.02-.13l-.48-.65c-.05-.06-.02-.21,.04-.21h.59s.05-.03,.06-.08l.18-1.05c.02-.1,.1-.1,.12,0Z"/><path class="cls-30" d="M46.35,71.8l.18,1.05s.03,.08,.06,.08h.59c.06,0,.08,.14,.04,.21l-.48,.65s-.03,.08-.02,.13l.18,1.05c.02,.1-.05,.19-.09,.13l-.48-.65s-.05-.03-.07,0l-.48,.65c-.05,.06-.11-.02-.09-.13l.18-1.05s0-.1-.02-.13l-.48-.65c-.05-.06-.02-.21,.04-.21h.59s.05-.03,.06-.08l.18-1.05c.02-.1,.1-.1,.12,0Z"/><path class="cls-5" d="M49.12,71.8l.18,1.05s.03,.08,.06,.08h.59c.06,0,.08,.14,.04,.21l-.48,.65s-.03,.08-.02,.13l.18,1.05c.02,.1-.05,.19-.09,.13l-.48-.65s-.05-.03-.07,0l-.48,.65c-.05,.06-.11-.02-.09-.13l.18-1.05s0-.1-.02-.13l-.48-.65c-.05-.06-.02-.21,.04-.21h.59s.05-.03,.06-.08l.18-1.05c.02-.1,.1-.1,.12,0Z"/><path class="cls-5" d="M51.89,71.8l.18,1.05s.03,.08,.06,.08h.59c.06,0,.08,.14,.04,.21l-.48,.65s-.03,.08-.02,.13l.18,1.05c.02,.1-.05,.19-.09,.13l-.48-.65s-.05-.03-.07,0l-.48,.65c-.05,.06-.11-.02-.09-.13l.18-1.05s0-.1-.02-.13l-.48-.65c-.05-.06-.02-.21,.04-.21h.59s.05-.03,.06-.08l.18-1.05c.02-.1,.1-.1,.12,0Z"/><path class="cls-5" d="M54.67,71.8l.18,1.05s.03,.08,.06,.08h.59c.06,0,.08,.14,.04,.21l-.48,.65s-.03,.08-.02,.13l.18,1.05c.02,.1-.05,.19-.09,.13l-.48-.65s-.05-.03-.07,0l-.48,.65c-.05,.06-.11-.02-.09-.13l.18-1.05s0-.1-.02-.13l-.48-.65c-.05-.06-.02-.21,.04-.21h.59s.05-.03,.06-.08l.18-1.05c.02-.1,.1-.1,.12,0Z"/></g></g></g></g><ellipse class="cls-38" cx="36" cy="105.92" rx="32.18" ry="2.08"/></g></g></g></svg>