<?xml version="1.0" encoding="UTF-8"?><svg xmlns="http://www.w3.org/2000/svg" viewBox="0 0 250 250.17"><defs><style>.cls-1,.cls-2{fill:#dabebc;}.cls-3,.cls-4,.cls-5,.cls-6,.cls-7,.cls-8,.cls-9,.cls-10{fill:#fff;}.cls-3,.cls-5,.cls-6,.cls-7,.cls-8,.cls-9{mix-blend-mode:screen;}.cls-3,.cls-11{opacity:.15;}.cls-5,.cls-12,.cls-13,.cls-14,.cls-15{opacity:.3;}.cls-2{opacity:.7;}.cls-2,.cls-12,.cls-16,.cls-11,.cls-13,.cls-17,.cls-18,.cls-14,.cls-15{mix-blend-mode:multiply;}.cls-6{opacity:.1;}.cls-19{isolation:isolate;}.cls-20{fill:#ee4298;}.cls-21{fill:#e7c9c7;}.cls-12,.cls-16{fill:#215a90;}.cls-16{opacity:.35;}.cls-22{stroke:#231f20;stroke-miterlimit:10;}.cls-22,.cls-23,.cls-24,.cls-25,.cls-18,.cls-26,.cls-27,.cls-28{fill:#231f20;}.cls-23{opacity:.85;}.cls-24{opacity:.9;}.cls-7{opacity:.6;}.cls-13{fill:#939598;}.cls-29{fill:#e591bd;}.cls-17{opacity:.8;}.cls-25,.cls-18{opacity:.25;}.cls-25,.cls-26{mix-blend-mode:darken;}.cls-26,.cls-9{opacity:.5;}.cls-30{fill:#00798c;}.cls-8{opacity:.4;}.cls-27,.cls-10{opacity:.65;}.cls-31{fill:#96ba3d;}.cls-15{fill:#a6a6a6;}.cls-10{mix-blend-mode:lighten;}.cls-32{fill:#fff3df;}</style></defs><g class="cls-19"><g id="Layer_2"><g id="Horns"><g><g><path class="cls-30" d="M81.09,54.31s-23.65-7.76-25.65-15.11c-2-7.35,13.23-26.74,13.23-26.74,0,0-29.92,8.9-33.66,33.07-3.01,19.39,43.48,34.7,43.48,34.7l2.61-25.93Z"/><path class="cls-7" d="M46.24,40.59c1.29,5.44,11.61,9.12,16.77,12,3.49,1.94,1.95,6.31-2.29,4.96-3.29-1.05-16.55-7.68-18.51-15.03-1.32-4.95,6.91-13.32,6.91-13.32,0,0-3.75,7.75-2.89,11.4Z"/><path class="cls-18" d="M55.44,39.2c-1.39-5.1,5.52-16,9.87-22.19-2.41,2.55-13.65,14.92-12.58,22.4,1.2,8.37,27.65,18.17,27.65,18.17l.43-.63,.26-2.64s-23.64-7.76-25.65-15.11Z"/><g class="cls-17"><path class="cls-1" d="M71.09,50.44c1.57,.69,3.09,1.31,4.44,1.83-6.32,6.3-8.47,15.6-5.45,24.78-.84-.35-1.73-.72-2.65-1.12-1.24-8.06,.62-16.66,5.03-23.48-8.52,3.44-13.43,10.77-15.66,18.35-.7-.38-1.41-.77-2.11-1.17,3.33-6.48,8.55-14,16.39-19.19Z"/><path class="cls-1" d="M64.36,47.17c-7.31,4.72-11.55,11.9-12.22,20.96-.71-.43-1.42-.88-2.11-1.33,2.4-7.82,6.57-14.98,12.17-20.88,.69,.43,1.42,.85,2.16,1.25Z"/><path class="cls-1" d="M53.25,39.98c.79-.1,1.59-.18,2.38-.23,.35,.85,.98,1.7,1.81,2.54-6.68,6.68-9.32,15.55-7.76,24.27-.83-.55-1.65-1.11-2.44-1.68,0-8.13,2.7-16.33,7.43-22.92-7.1,3.16-11.71,9.35-13.31,18.01-.66-.66-1.29-1.33-1.87-2.01,2.6-7.44,7.33-13.61,13.77-17.99Z"/><path class="cls-1" d="M41.65,30.41c.65-.83,1.32-1.63,2.02-2.4,2.35,.19,4.55,.82,6.35,1.42,2.16,.72,4.52,1.68,6.3,3.39-.35,.96-.63,1.89-.81,2.75-2.25-4.76-9.9-6.71-13.86-5.15Z"/><path class="cls-1" d="M34.87,47.2c0-.56,.05-1.11,.14-1.68,.08-.53,.18-1.04,.28-1.55,5.96-3.84,12.94-6.16,19.99-6.65-.03,.69,.02,1.32,.17,1.88,.05,.18,.12,.37,.19,.56-.79,.05-1.59,.32-2.38,.23-6.83-.77-13.24,1.85-18.39,7.22Z"/><path class="cls-1" d="M53.31,19.89c.71-.47,1.41-.91,2.11-1.33,1.91,1.97,3.43,4.35,4.45,6.93-.55,.95-1.07,1.92-1.56,2.88,.04-3.7-1.67-6.69-4.99-8.48Z"/></g><path class="cls-18" d="M68.67,12.46c-9.42,3.27-33.97,19.66-29.55,33.89,3.81,12.25,38.97,22.25,38.97,22.25l-.12,11.46c-5.11-1.76-45.77-16.35-42.96-34.53,3.75-24.17,33.66-33.07,33.66-33.07Z"/><path class="cls-2" d="M73.43,65.02c.95-4.45,2.67-8.68,4.58-11.81,1.88,.69,3.08,1.09,3.08,1.09l-2.6,25.93s-2.51-.83-6.32-2.34c-.22-3.61,.27-8.18,1.26-12.87Z"/><path class="cls-31" d="M95.82,53.69s-.9-1.38-2.86-1.53c-1.95-.15-2.55,.77-2.55,.77,0,0,.15-4.44-3.31-4.9-3.46-.46-8.72,7.81-10.67,16.99-1.95,9.19-1.95,17.91,1.5,19.9s17.88-31.23,17.88-31.23Z"/><path class="cls-12" d="M75.9,82.08h0c-1.28-3.77-.91-10.29,.53-17.06,1.95-9.19,7.21-17.45,10.67-16.99,.2,.03,.38,.07,.56,.12-1.87,1.37-5.38,4.77-7.37,11.88-1.25,4.47-.23,7.39,1.3,9.26,3.67-6.93,7.34-12.57,10.95-17.13,.13,0,.27,0,.42,.02,1.95,.15,2.86,1.53,2.86,1.53,0,0-3.87,8.9-8.07,17.21l-.06,.11c-1.57,3.1-5.66,11.04-8.21,13.35-.59,.53-1.23,.71-1.87,.35-.57-.31-1.14-1.01-1.7-2.64Z"/></g><g><path class="cls-30" d="M168.99,54.01s23.65-7.76,25.65-15.11c2-7.35-13.23-26.74-13.23-26.74,0,0,29.92,8.9,33.66,33.07,3.01,19.39-43.48,34.7-43.48,34.7l-2.61-25.93Z"/><path class="cls-7" d="M203.84,40.3c-1.29,5.44-11.61,9.12-16.77,12-3.49,1.94-1.95,6.31,2.29,4.96,3.29-1.05,16.55-7.68,18.51-15.03,1.32-4.95-6.91-13.32-6.91-13.32,0,0,3.75,7.75,2.89,11.4Z"/><path class="cls-18" d="M194.64,38.9c1.39-5.1-5.52-16-9.87-22.19,2.41,2.55,13.65,14.92,12.58,22.4-1.2,8.37-27.65,18.17-27.65,18.17l-.43-.63-.26-2.64s23.64-7.76,25.65-15.11Z"/><g class="cls-17"><path class="cls-1" d="M178.99,50.14c-1.57,.69-3.09,1.31-4.44,1.83,6.32,6.3,8.47,15.6,5.45,24.78,.84-.35,1.73-.72,2.65-1.12,1.24-8.06-.62-16.66-5.03-23.48,8.52,3.44,13.43,10.77,15.66,18.35,.7-.38,1.41-.77,2.11-1.17-3.33-6.48-8.55-14-16.39-19.19Z"/><path class="cls-1" d="M185.72,46.87c7.31,4.72,11.55,11.9,12.22,20.96,.71-.43,1.42-.88,2.11-1.33-2.4-7.82-6.57-14.98-12.17-20.88-.69,.43-1.42,.85-2.16,1.25Z"/><path class="cls-1" d="M196.83,39.69c-.79-.1-1.59-.18-2.38-.23-.35,.85-.98,1.7-1.81,2.54,6.68,6.68,9.32,15.55,7.76,24.27,.83-.55,1.65-1.11,2.44-1.68,0-8.13-2.7-16.33-7.43-22.92,7.1,3.16,11.71,9.35,13.31,18.01,.66-.66,1.29-1.33,1.87-2.01-2.6-7.44-7.33-13.61-13.77-17.99Z"/><path class="cls-1" d="M208.43,30.12c-.65-.83-1.32-1.63-2.02-2.4-2.35,.19-4.55,.82-6.35,1.42-2.16,.72-4.52,1.68-6.3,3.39,.35,.96,.63,1.89,.81,2.75,2.25-4.76,9.9-6.71,13.86-5.15Z"/><path class="cls-1" d="M215.22,46.91c0-.56-.05-1.11-.14-1.68-.08-.53-.18-1.04-.28-1.55-5.96-3.84-12.94-6.16-19.99-6.65,.03,.69-.02,1.32-.17,1.88-.05,.18-.12,.37-.19,.56,.79,.05,1.59,.32,2.38,.23,6.83-.77,13.24,1.85,18.39,7.22Z"/><path class="cls-1" d="M196.78,19.59c-.71-.47-1.41-.91-2.11-1.33-1.91,1.97-3.43,4.35-4.45,6.93,.55,.95,1.07,1.92,1.56,2.88-.04-3.7,1.67-6.69,4.99-8.48Z"/></g><path class="cls-18" d="M181.41,12.16c9.42,3.27,33.97,19.66,29.55,33.89-3.81,12.25-38.97,22.25-38.97,22.25l.12,11.46c5.11-1.76,45.77-16.35,42.96-34.53-3.75-24.17-33.66-33.07-33.66-33.07Z"/><path class="cls-2" d="M176.66,64.73c-.95-4.45-2.67-8.68-4.58-11.81-1.88,.69-3.08,1.09-3.08,1.09l2.6,25.93s2.51-.83,6.32-2.34c.22-3.61-.27-8.18-1.26-12.87Z"/><path class="cls-31" d="M154.26,53.4s.9-1.38,2.86-1.53c1.95-.15,2.55,.77,2.55,.77,0,0-.15-4.44,3.31-4.9,3.46-.46,8.72,7.81,10.67,16.99,1.95,9.19,1.95,17.91-1.5,19.9-3.46,1.99-17.88-31.23-17.88-31.23Z"/><path class="cls-12" d="M174.18,81.79h0c1.28-3.77,.91-10.29-.53-17.06-1.95-9.19-7.21-17.45-10.67-16.99-.2,.03-.38,.07-.56,.12,1.87,1.37,5.38,4.77,7.37,11.88,1.25,4.47,.23,7.39-1.3,9.26-3.67-6.93-7.34-12.57-10.95-17.13-.13,0-.27,0-.42,.02-1.95,.15-2.86,1.53-2.86,1.53,0,0,3.87,8.9,8.07,17.21l.06,.11c1.57,3.1,5.66,11.04,8.21,13.35,.59,.53,1.23,.71,1.87,.35,.57-.31,1.14-1.01,1.7-2.64Z"/></g></g></g><g id="Hairdoo"><g><path class="cls-31" d="M129.89,36.34s2.2-8.78,2-17.96S129.69-.2,124.48,0c-5.21,.2-5.01,14.49-4.21,20.21,.8,5.72,2.81,11.23,2.81,11.23,0,0-2.81-7.55-6.41-7.15-3.61,.41-2.2,9.59,2.61,13.27,4.81,3.67,10.62-1.22,10.62-1.22Z"/><path class="cls-12" d="M124.48,0c-5.21,.2-5.01,14.49-4.21,20.21,.8,5.72,2.81,11.23,2.81,11.23,0,0-2.81-7.55-6.41-7.14-3.26,.37-2.43,7.92,1.32,12.08-1.41-2.29-4.08-9.47-.97-10.24,2.6-.64,6.31,10.41,7.66,9.65,.67-.38-2.65-11.06-3.16-19.14-.6-9.65,1.2-14.39,3.61-14.39,3.66,0,4.96,9.65,4.96,16.38s-2.2,18.32-2.2,18.32l.56,.38c.9-.53,1.45-1,1.45-1,0,0,2.2-8.78,2-17.96C131.69,9.19,129.69-.2,124.48,0Z"/><path class="cls-3" d="M125.16,5.45c-3.96-.1-3.57,15.48,1.15,15.31,3.14-.11,3.11-15.2-1.15-15.31Z"/><path class="cls-3" d="M117.15,27.88c-1.99,.55,.08,6.73,2.41,5.96,1.55-.52-.27-6.55-2.41-5.96Z"/></g></g><g id="Legs"><g><g><path class="cls-28" d="M73.5,250.04c-.63,0-1.27-.2-1.82-.62-1.34-1.02-1.61-2.96-.61-4.32,.16-.21,15.66-21.37,21.31-37.27,.57-1.6,2.31-2.43,3.88-1.85,1.57,.58,2.39,2.35,1.82,3.95-5.96,16.77-21.5,37.98-22.16,38.87-.6,.81-1.51,1.23-2.43,1.23Z"/><path class="cls-28" d="M53.31,229.15c-1.68,3.08,1.64,6.06,9.17,12.4,6.95,5.85,11.76,11.43,13.66,7.04,1.9-4.39-3.35-12.98-10.55-17.83-7.2-4.85-11.16-3.66-12.28-1.62Z"/></g><g><path class="cls-28" d="M176.97,250.04c-.92,0-1.83-.43-2.43-1.23-.66-.89-16.2-22.1-22.16-38.87-.57-1.6,.24-3.37,1.82-3.95,1.57-.58,3.31,.25,3.88,1.85,5.66,15.91,21.16,37.06,21.31,37.27,1,1.36,.73,3.3-.61,4.32-.54,.42-1.18,.62-1.82,.62Z"/><path class="cls-28" d="M197.16,229.15c1.68,3.08-1.64,6.06-9.17,12.4-6.95,5.85-11.76,11.43-13.66,7.04-1.9-4.39,3.36-12.98,10.55-17.83,7.2-4.85,11.16-3.66,12.28-1.62Z"/></g></g></g><g id="Arms"><g><g><path class="cls-28" d="M175.89,157.25l-.91-8.18c19.15-2.21,35.74-24.25,52.22-69.37l7.57,2.87c-17.9,49.02-36.06,72.05-58.88,74.68Z"/><path class="cls-28" d="M232.02,83.84s2.47,.46,6.03-.55c0,0,.89-.25,4.18,.89,2.42,.84,3.93,2.74,4.93,1.03,.78-1.33-1.32-2.79-3.55-3.96-1.92-1.01-3.55-.83-3.57-1.64,0-.59,3.64-1.32,5.56-1.49s4.12,.47,4.38-1.25c.25-1.67-2.62-2.71-5.64-2.43-2.21,.2-5,1.01-5.5,.3-.5-.71,1.31-2.18,3.08-2.75,2.03-.66,4.99-1.08,4.13-2.89-.86-1.81-5.2-.81-7.84,.55-3.28,1.69-4.4,3.39-5.76,3.07-1.36-.31-2.51-5.89-5.16-5.36-2.64,.53-.37,4.42-.13,7.53,.24,3.11,.07,5.58,.07,5.58l4.77,3.38Z"/></g><g><path class="cls-28" d="M72.33,158.67c-11.57,0-46.87-34.8-57.11-63.94l7.61-2.78c9.92,28.23,43.26,58.26,49.45,58.48-.63-.07-1.62,.6-1.9,1.59l7.77,2.26c-.73,2.61-2.89,4.29-5.63,4.38-.06,0-.12,0-.19,0Z"/><path class="cls-28" d="M17.98,96.05s-2.47,.46-6.03-.55c0,0-.89-.25-4.18,.89-2.42,.84-3.93,2.74-4.93,1.03-.78-1.33,1.32-2.79,3.55-3.96,1.92-1.01,3.55-.83,3.57-1.64,0-.59-3.64-1.32-5.56-1.49-1.92-.17-4.12,.47-4.38-1.25-.25-1.67,2.62-2.71,5.64-2.43,2.21,.2,5,1.01,5.5,.3,.5-.71-1.31-2.18-3.08-2.75-2.03-.66-4.99-1.08-4.13-2.89,.86-1.81,5.2-.81,7.84,.55,3.28,1.69,4.4,3.39,5.76,3.07,1.36-.31,2.51-5.89,5.16-5.36s.37,4.42,.13,7.53-.07,5.58-.07,5.58l-4.77,3.38Z"/></g></g></g><g id="Bodycolor"><path class="cls-31" d="M182.12,110.44c-19.76-62-41.62-75.09-57.24-75.12h-.07c-15.63,.04-37.48,13.12-57.24,75.12-20.04,62.88-1.4,87.17-1.4,87.17,0,0,2-4.7,3.01-7.55,0,0,1.6,10.41,9.62,16.13,8.02,5.72,12.62,10.41,12.62,10.41,0,0-.2-3.27,0-6.53,0,0,2.4,6.94,12.82,11.84,10.36,4.87,16.37,6.11,20.57,10.55v.07l.03-.04,.03,.04v-.07c4.2-4.43,10.21-5.67,20.57-10.55,10.42-4.9,12.82-11.84,12.82-11.84,.2,3.27,0,6.53,0,6.53,0,0,4.61-4.7,12.62-10.41,8.02-5.72,9.62-16.13,9.62-16.13,1,2.86,3.01,7.55,3.01,7.55,0,0,18.64-24.29-1.4-87.17Z"/></g><g id="Bodyshade"><path class="cls-13" d="M182.3,108.89c-19.76-62-41.62-75.09-57.24-75.12h-.07c-15.63,.04-37.48,13.12-57.24,75.12-20.04,62.88-1.4,87.17-1.4,87.17,0,0,2-4.7,3.01-7.55,0,0,1.6,10.41,9.62,16.13,8.02,5.72,12.62,10.41,12.62,10.41,0,0-.2-3.27,0-6.53,0,0,2.4,6.94,12.82,11.84,10.36,4.87,16.37,6.11,20.57,10.55v.07l.03-.04,.03,.04v-.07c4.2-4.43,10.21-5.67,20.57-10.55,10.42-4.9,12.82-11.84,12.82-11.84,.2,3.27,0,6.53,0,6.53,0,0,4.61-4.7,12.62-10.41,8.02-5.72,9.62-16.13,9.62-16.13,1,2.86,3.01,7.55,3.01,7.55,0,0,18.64-24.29-1.4-87.17Zm-2.14,69.41c-1.2,12.45-3.61,21.84-18.03,27.56v-8.57c-.05,.12-5.89,14.95-18.51,20.82-13.36,6.21-25.67,6.55-37.99,.41-9.42-4.7-17.47-21.11-17.52-21.23,.7,3.67,.83,7.05,.09,10-12.94-3.67-15.82-13.73-18.12-28.99l-5.12,6.94c-3.78-10.26-7.9-35.18,5.61-77.57,14.9-46.75,35-68.81,54.5-69h.11c19.5,.19,39.89,24.29,54.79,71.04,13.51,42.39,9.19,65.07,5.41,75.33l-5.21-6.74Z"/></g><g id="Fur"><g class="cls-11"><path class="cls-22" d="M119.47,50.05c-.22,6.07,1.6,12.27,5.36,16.59h0l-1.63-.15c1.43-1.15,2.68-2.52,3.68-4.11,.5-.79,.94-1.63,1.34-2.51,.41-.88,.74-1.79,1.24-2.73h0l.75-1.63,.22,1.81c.4,3.32,1.06,6.59,2.42,9.54,1.34,2.95,3.37,5.5,5.78,7.6h0l-1.72,.26c1.07-1.47,1.88-3.32,2.67-5.15,.8-1.83,1.54-3.75,2.63-5.44-.76,1.86-1.11,3.84-1.57,5.8-.45,1.97-.88,3.97-1.81,5.97l-.64,1.38-1.08-1.12h0c-2.47-2.44-4.53-5.38-5.77-8.64-1.27-3.26-1.73-6.72-1.93-10.09l.97,.19h0c-.34,.84-.59,1.82-.92,2.76-.32,.95-.69,1.91-1.15,2.83-.9,1.85-2.15,3.55-3.62,5.01l-.87,.86-.76-1.02h0c-1.82-2.68-2.92-5.71-3.49-8.78-.56-3.07-.6-6.21-.1-9.23Z"/><path class="cls-22" d="M109.82,202.56c1.07,2.87,2.27,5.7,3.95,8.17,1.66,2.48,3.76,4.59,6.02,6.51h0l-1.98,.54c1.34-3.37,1.93-7.51,3.86-10.88-.58,1.85-.81,3.76-.97,5.67-.16,1.92-.22,3.86-.58,5.9l-.41,2.28-1.57-1.74h0c-2.09-2.31-4.01-4.85-5.41-7.66-1.41-2.81-2.23-5.81-2.91-8.8Z"/><path class="cls-22" d="M137.54,201.65c-.09,2.21,.16,4.4,.37,6.6,.22,2.2,.51,4.38,.62,6.68h0l-2.11-.86c1.54-1.63,3.13-3.06,4.67-4.54,1.54-1.47,3.04-2.97,4.43-4.58,1.38-1.61,2.65-3.32,3.69-5.18,.25-.47,.53-.93,.74-1.42,.21-.49,.48-.96,.64-1.47,.4-1,.69-2.04,.95-3.09-.17,1.07-.36,2.14-.67,3.19-.12,.53-.34,1.03-.51,1.55-.17,.52-.4,1.01-.62,1.52-.89,2-2.02,3.89-3.29,5.67-2.5,3.58-5.64,6.7-8.22,9.95l-2.11,2.66v-3.52h0c.29-2.1,.4-4.34,.58-6.55,.18-2.21,.34-4.45,.83-6.61Z"/><path class="cls-22" d="M78.19,134.89c-.5,1.48-1.44,2.78-2.29,4.07-.84,1.26-1.8,2.58-2.28,3.76h0l-1.05,1.7-.95-1.56-.82-1.34c-.28-.44-.46-.94-.69-1.4-.42-.95-.77-1.93-1-2.94-.12-.5-.25-1-.31-1.51-.06-.51-.18-1.01-.19-1.51-.09-1.01-.11-2.02-.08-3.02,.06-2,.35-3.97,.71-5.9,.36-1.93,.86-3.82,1.19-5.75-.13,1.96-.43,3.9-.59,5.84-.17,1.94-.24,3.88-.11,5.79,.08,.95,.19,1.9,.37,2.83,.06,.47,.22,.92,.32,1.37,.1,.46,.27,.89,.42,1.33,.29,.88,.69,1.71,1.15,2.5,.25,.38,.44,.8,.72,1.15l.81,1.08-1.99,.14h0c.56-.75,1.14-1.29,1.72-1.83l1.75-1.53c1.14-1.01,2.33-1.97,3.18-3.25Z"/><path class="cls-22" d="M172.33,136.93c.85,1.28,2.04,2.24,3.18,3.25l1.75,1.53c.58,.54,1.16,1.08,1.72,1.83h0l-1.99-.13,.81-1.07c.29-.35,.48-.77,.72-1.15,.45-.78,.85-1.62,1.15-2.5,.15-.44,.32-.87,.42-1.33,.1-.46,.26-.9,.32-1.37,.18-.93,.29-1.87,.37-2.83,.14-1.91,.06-3.85-.11-5.79-.16-1.94-.46-3.88-.59-5.84,.33,1.93,.82,3.82,1.19,5.75,.37,1.93,.65,3.9,.71,5.9,.02,1,0,2.01-.08,3.02-.02,.51-.13,1.01-.19,1.51-.06,.51-.19,1-.31,1.51-.22,1-.58,1.99-1,2.94-.23,.46-.41,.96-.69,1.4l-.82,1.34-.95,1.56-1.05-1.69h0c-.48-1.18-1.44-2.5-2.28-3.76-.84-1.29-1.79-2.59-2.29-4.07Z"/><path class="cls-22" d="M93.61,192.43c.73,2.16,1.64,4.27,2.97,6.01,1.32,1.75,3.03,3.02,4.93,4.08h0l-1.88,.93c.31-1.5,.66-2.95,1.07-4.4,.41-1.44,.86-2.89,1.48-4.24-.43,2.93-.31,5.91-.15,8.81l.13,2.5-2.01-1.57h0c-1.81-1.48-3.52-3.31-4.59-5.45-1.09-2.12-1.61-4.41-1.95-6.67Z"/><path class="cls-22" d="M175.22,184.44c-.22,2.27-.62,4.58-1.59,6.77-.95,2.19-2.56,4.11-4.29,5.7h0l-1.92,1.69v-2.51c0-2.91-.04-5.88-.64-8.79,.7,1.31,1.22,2.73,1.71,4.15,.48,1.43,.91,2.86,1.31,4.34l-1.92-.82h0c1.84-1.17,3.48-2.53,4.7-4.35,1.23-1.81,2.02-3.97,2.64-6.17Z"/><path class="cls-22" d="M74.1,184.62c.52,2.75,1.55,5.33,3.06,7.58,1.49,2.26,3.38,4.26,5.05,6.6h-2.03c1.94-2.35,3.59-5.01,4.87-7.9-.51,3.13-1.46,6.24-2.84,9.21l-.94,2.03-1.09-2.04h0c-1.22-2.39-2.84-4.71-4.06-7.29-1.24-2.57-1.91-5.4-2.02-8.18Z"/><path class="cls-22" d="M102.48,62.9c-.05,2.8,.44,5.54,1.47,8.06,1.01,2.52,2.44,4.88,3.61,7.51h0l-1.99-.43c2.37-1.88,4.52-4.14,6.36-6.71-1.13,2.96-2.69,5.81-4.64,8.42l-1.33,1.79-.65-2.22h0c-.72-2.59-1.83-5.2-2.5-7.99-.7-2.78-.78-5.69-.33-8.43Z"/></g></g><g id="Highlighting"><g><path class="cls-3" d="M93.44,200.88s6.82,21.47,31.35,21.47,31.45-21.47,31.45-21.47h-62.8Z"/><path class="cls-3" d="M175.28,110.22c-17.41-54.51-36.65-66.02-50.41-66.05h-.06c-13.76,.03-33,11.54-50.41,66.05,6.09,10.09,19.84,16.33,50.44,16.33s44.34-6.24,50.44-16.33Z"/><path class="cls-6" d="M72.68,183.22s.15,18.53,13.68,23.12c0,0,1.56-7.5-3.01-17.76l-10.67-5.36Z"/><path class="cls-6" d="M177.99,181.18s-.15,18.53-13.68,23.12c0,0-1.56-7.5,3.01-17.76l10.67-5.36Z"/></g></g><g id="Eye_Brows"><g><g><g><path class="cls-15" d="M107.31,59.2s-.06,0-.08,0c2.35,2.7,4.16,7.64,2.75,10.71-2.78,6.03-19.99,13.19-23.76,12.78-.24-.03-.47-.07-.7-.12,.92,1.14,2.28,1.88,3.78,2.04,3.77,.41,20.98-6.75,23.76-12.78,2-4.34-2.42-12.41-5.74-12.63Z"/><path class="cls-10" d="M109.97,69.91c1.42-3.08-.39-8.01-2.75-10.71-.97-1.11-2.03-1.86-2.99-1.92-4.27-.29-18.98,10.8-21.84,15.92-2.68,4.79-.3,8.58,3.12,9.38,.23,.05,.46,.09,.7,.12,3.77,.41,20.98-6.75,23.76-12.78Z"/></g><g class="cls-14"><path class="cls-26" d="M93.73,62.51c1.59-1.13,3.17-2.17,4.64-3.01,.06,1.77,.94,6.75,7.91,14.5-1.33,1.04-2.89,2.05-4.55,3-1.9-1.85-7.03-7.41-8-14.48Z"/><path class="cls-26" d="M85.42,69.47c.76-.77,1.62-1.57,2.54-2.38,.43,2.08,2.13,8.3,7.7,12.91-1.12,.48-2.21,.91-3.24,1.27-1.3-1.4-6.75-7.53-7-11.8Z"/></g></g><path class="cls-9" d="M103.17,60.19c2.88,.2,4.18,4.19,3.2,5.59-3.3,4.7-16.45,11.25-19.65,12.04-1.99,.49-4.66-.46-2.51-3.81,2.75-4.27,15.25-14.07,18.96-13.82Z"/></g><g><g><g><path class="cls-15" d="M141.95,59.2s.06,0,.08,0c-2.35,2.7-4.16,7.64-2.75,10.71,2.78,6.03,19.99,13.19,23.76,12.78,.24-.03,.47-.07,.7-.12-.92,1.14-2.28,1.87-3.78,2.04-3.77,.41-20.98-6.75-23.76-12.78-2-4.34,2.42-12.41,5.74-12.63Z"/><path class="cls-10" d="M139.29,69.91c-1.42-3.08,.39-8.01,2.75-10.71,.97-1.11,2.03-1.86,2.99-1.92,4.27-.29,18.98,10.8,21.84,15.92,2.68,4.79,.3,8.58-3.12,9.38-.23,.05-.46,.09-.7,.12-3.77,.41-20.98-6.75-23.76-12.78Z"/></g><g class="cls-14"><path class="cls-26" d="M155.52,62.51c-1.59-1.13-3.17-2.17-4.64-3.01-.06,1.77-.94,6.75-7.91,14.5,1.33,1.04,2.89,2.05,4.55,3,1.9-1.85,7.03-7.41,8-14.48Z"/><path class="cls-26" d="M163.83,69.47c-.76-.77-1.62-1.57-2.54-2.38-.43,2.08-2.13,8.3-7.7,12.91,1.12,.48,2.21,.91,3.24,1.27,1.3-1.4,6.75-7.53,7-11.8Z"/></g></g><path class="cls-9" d="M143.97,58.58c-3.21,.22-4.65,4.67-3.56,6.22,3.67,5.23,18.3,12.52,21.87,13.4,2.21,.54,5.19-.51,2.79-4.24-3.06-4.76-16.97-15.66-21.1-15.38Z"/></g></g><g id="Mouth"><path class="cls-5" d="M82.62,158.37c-6.99,5.91-8.83,43.5,40.39,45.43,49.22,1.93,51.24-39.92,45.43-46.07-10.52-11.14-29.24,3.43-43.96,3.43s-30.71-12.21-41.86-2.79Z"/><path class="cls-24" d="M82.62,153.23c-6.99,5.91-8.83,43.5,40.39,45.43,49.22,1.93,51.24-39.92,45.43-46.07-10.52-11.14-29.24,3.43-43.96,3.43s-30.71-12.21-41.86-2.79Z"/><path class="cls-23" d="M82.62,155.32c-6.99,5.91-8.83,43.5,40.39,45.43,49.22,1.93,51.24-39.92,45.43-46.07-10.52-11.14-29.24,3.43-43.96,3.43s-30.71-12.21-41.86-2.79Z"/><path class="cls-20" d="M123.01,200.75c11.73,.46,20.75-1.58,27.65-5.02-.7-5.27-5.16-15.93-12.53-17.59-8.58-1.93-12.43,2.95-15.24,2.72-2.8-.23-5.6-4.9-13.84-3.84-7.57,.98-12.27,10.97-13.89,16.77,6.62,3.82,15.66,6.48,27.84,6.96Z"/><path class="cls-25" d="M140.01,178.81c2.28,1.77,3.61,3.9,3.61,6.2,0,6.09-9.37,11.04-20.93,11.04s-20.93-4.94-20.93-11.04c0-3,2.28-5.71,5.96-7.7-6.79,1.9-11.03,11.05-12.55,16.49,6.62,3.82,15.66,6.48,27.84,6.96,11.73,.46,20.75-1.58,27.65-5.02-.64-4.8-4.41-14.06-10.65-16.92Z"/><path class="cls-5" d="M134.29,183.6c-2.64,.74-5.02,.34-5.32-.88s1.59-2.82,4.23-3.56c2.64-.74,5.02-.34,5.32,.88s-1.59,2.82-4.23,3.56Z"/><path class="cls-5" d="M109.87,182.74c-2.17,.45-4.12-.15-4.35-1.36-.23-1.21,1.34-2.55,3.52-3.01,2.17-.45,4.12,.15,4.35,1.36,.23,1.21-1.34,2.55-3.52,3.01Z"/><g><path class="cls-32" d="M93.04,162.29c6.44-.25,7.82-6.62,8.12-9.36-5.44-1.32-10.6-1.82-15.15,.29,.48,3.58,2.04,9.26,7.04,9.07Z"/><path class="cls-32" d="M112.44,169.68c8.64,.25,9.94-8.04,10.09-11.67-6.12-.42-12.41-2.63-18.45-4.32-.4,3.84-.91,15.72,8.36,15.99Z"/><path class="cls-32" d="M153.14,164.05c7.4-.53,7.32-10.08,7.06-13.45-4.6-.54-9.81,.82-15.18,2.52,.25,3.23,1.54,11.39,8.12,10.92Z"/><path class="cls-32" d="M135.33,169.68c9.37-.27,8.75-12.42,8.34-16.11-6.24,2.03-12.62,4.33-18.43,4.52,.17,3.66,1.5,11.84,10.09,11.59Z"/><path class="cls-32" d="M94.46,179.16c-6.06-1.03-7.57,5.14-7.93,7.65,3.1,3.51,7.34,6.68,12.95,9.12,.43-3.43,1.49-15.66-5.02-16.77Z"/><path class="cls-32" d="M111.49,186.71c-8.43-.73-9.22,8.53-9.3,10.29,4.94,1.79,10.83,3.05,17.83,3.55,.05-1.89,0-13.11-8.53-13.85Z"/><path class="cls-32" d="M152.68,179.48c-7.23,1.23-5.12,16.2-4.91,17.55,5.28-2.15,9.49-5.05,12.75-8.36,.07-.17,.16-.33,.21-.51,0,0-.47-9.96-8.05-8.68Z"/><path class="cls-32" d="M133.6,186.71c-8.99,.78-8.56,13.21-8.52,14.06,6.97,.1,12.97-.68,18.08-2.14,0-.14-.3-12.72-9.56-11.92Z"/></g><path class="cls-25" d="M134.23,177.71c-6.41-.29-9.64,3.35-12.07,3.15-2.51-.2-5.06-3.95-11.49-3.96,10.18,1.55,9.94,9.99,12.02,10.47,1.56,.12,2.56-8.5,11.53-9.66Z"/></g><g id="Eyes"><path class="cls-16" d="M170.14,112.71c2.51,17.91-2,34.98-24.06,34.98s-25.88-16.83-23.81-34.43c2.04-17.32,11.21-32.55,23.81-32.55s21.6,14.46,24.06,31.99Z"/><path class="cls-21" d="M168.19,111.91c2.28,16.54-1.83,32.31-21.91,32.31s-23.57-15.55-21.68-31.8c1.86-16,10.21-30.06,21.68-30.06s19.68,13.35,21.91,29.55Z"/><path class="cls-8" d="M165.35,107.88c2,13.17-1.6,25.72-19.24,25.72s-20.69-12.38-19.04-25.31c1.63-12.74,8.97-23.93,19.04-23.93s17.27,10.63,19.24,23.52Z"/><ellipse class="cls-29" cx="141.38" cy="120.06" rx="10.15" ry="11.07"/><path class="cls-4" d="M143.21,110.02c-2.08,2.9-2.18,6.6-.06,8.76,1.9,1.94,5.01,2.06,7.68,.54-1.02-4.27-3.89-7.73-7.62-9.3Z"/><path class="cls-27" d="M141.38,108.99c-5.6,0-10.15,4.96-10.15,11.07s4.54,11.07,10.15,11.07,10.15-4.96,10.15-11.07-4.54-11.07-10.15-11.07Zm0,20.43c-4.74,0-8.59-4.19-8.59-9.36s3.84-9.36,8.59-9.36,8.59,4.19,8.59,9.36-3.84,9.36-8.59,9.36Z"/><path class="cls-4" d="M150.19,102.8c-2.05-4.45-1.6-9.07,1-10.3s6.36,1.37,8.4,5.82,1.6,9.07-1,10.3c-2.6,1.24-6.36-1.37-8.4-5.82Z"/><path class="cls-16" d="M79.13,114.34c-2.6,16.87,1.41,33.05,22.13,33.36,20.72,.31,24.55-15.53,22.84-32.17-1.68-16.38-10.09-30.88-21.93-31.06-11.84-.18-20.5,13.34-23.04,29.86Z"/><path class="cls-21" d="M81,113.57c-2.38,15.58,1.29,30.53,20.25,30.81,18.96,.28,22.46-14.34,20.9-29.71-1.54-15.13-9.23-28.52-20.06-28.68s-18.76,12.33-21.09,27.58Z"/><path class="cls-8" d="M83.74,109.81c-2.07,12.4,1.16,24.3,17.81,24.55,16.65,.25,19.7-11.39,18.31-23.63-1.37-12.05-8.14-22.72-17.65-22.86-9.51-.14-16.45,9.79-18.48,21.93Z"/><path class="cls-29" d="M115.79,120.5c.08,5.77-4.14,10.51-9.43,10.59-5.29,.08-9.65-4.53-9.73-10.3s4.14-10.51,9.43-10.59c5.29-.08,9.65,4.53,9.73,10.3Z"/><path class="cls-4" d="M107.8,111.14c-1.93,2.77-1.97,6.26,.06,8.27,1.82,1.8,4.76,1.87,7.26,.4-1.02-4.02-3.78-7.24-7.32-8.67Z"/><path class="cls-27" d="M106.06,110.2c-5.29,.08-9.51,4.75-9.43,10.44s4.44,10.24,9.73,10.16c5.29-.08,9.51-4.75,9.43-10.44-.08-5.69-4.44-10.24-9.73-10.16Zm.28,19.02c-4.48,.07-8.16-3.78-8.23-8.6-.07-4.81,3.5-8.77,7.98-8.84,4.48-.07,8.16,3.78,8.23,8.6,.07,4.81-3.5,8.77-7.98,8.84Z"/><path class="cls-4" d="M115.7,101.65c-1.27-3.75-4.08-6.16-6.26-5.39-2.18,.77-2.92,4.43-1.65,8.18,1.27,3.75,4.08,6.16,6.26,5.39s2.92-4.43,1.65-8.18Z"/></g></g></g></svg>